<svg width="500" height="500" viewBox="0 0 500 500" fill="none" xmlns="http://www.w3.org/2000/svg">
<path d="M156.98 305.02C155.42 307.09 152.47 307.5 150.4 305.94C148.33 304.38 147.92 301.43 149.48 299.36C151.04 297.29 153.99 296.88 156.06 298.44C158.13 300 158.54 302.95 156.98 305.02Z" fill="#E0E0E0"/>
<path d="M157.38 303.36C157.09 303.36 157 298.41 157.97 292.43C158.95 286.47 159.78 281.69 160.03 281.71C160.34 281.73 159.97 286.65 158.99 292.59C158.03 298.52 157.66 303.36 157.38 303.36Z" fill="#E0E0E0"/>
<path d="M170.07 282.79C170.22 283.01 167.95 284.37 164.82 284.13C161.69 283.92 159.64 282.25 159.82 282.05C159.98 281.79 162.07 282.92 164.9 283.1C167.72 283.33 169.96 282.51 170.07 282.8V282.79Z" fill="#E0E0E0"/>
<path d="M169.03 287.55C169.21 287.76 167 289.21 163.97 288.75C160.93 288.33 159.22 286.32 159.45 286.17C159.64 285.94 161.44 287.37 164.12 287.73C166.79 288.15 168.91 287.27 169.04 287.55H169.03Z" fill="#E0E0E0"/>
<path d="M324.5 95.14C323.64 96.7 321.67 97.27 320.11 96.41C318.55 95.55 317.98 93.58 318.84 92.02C319.7 90.46 321.67 89.89 323.23 90.75C324.79 91.61 325.36 93.58 324.5 95.14Z" fill="#E0E0E0"/>
<path d="M324.61 93.97C324.41 94 323.86 90.64 323.94 86.47C324.02 82.32 324.12 78.98 324.29 78.96C324.51 78.95 324.73 82.33 324.65 86.47C324.58 90.6 324.8 93.94 324.61 93.97Z" fill="#E0E0E0"/>
<path d="M331.23 78.71C331.36 78.85 329.94 79.99 327.79 80.14C325.64 80.3 324.07 79.37 324.18 79.21C324.26 79.02 325.8 79.58 327.74 79.43C329.69 79.31 331.13 78.53 331.23 78.71Z" fill="#E0E0E0"/>
<path d="M330.99 82.06C331.13 82.19 329.77 83.39 327.66 83.38C325.55 83.39 324.18 82.19 324.33 82.07C324.44 81.89 325.8 82.69 327.66 82.67C329.52 82.69 330.88 81.89 330.99 82.07V82.06Z" fill="#E0E0E0"/>
<path d="M121.9 55.38C120.79 57.4 118.25 58.14 116.23 57.02C114.21 55.91 113.47 53.37 114.59 51.35C115.7 49.33 118.24 48.59 120.26 49.71C122.28 50.82 123.02 53.36 121.9 55.38Z" fill="#E0E0E0"/>
<path d="M122.04 53.86C121.79 53.9 121.08 49.55 121.17 44.17C121.28 38.8 121.4 34.49 121.63 34.47C121.91 34.45 122.2 38.82 122.09 44.17C122 49.51 122.29 53.82 122.04 53.85V53.86Z" fill="#E0E0E0"/>
<path d="M130.6 34.16C130.76 34.34 128.93 35.82 126.15 36C123.37 36.21 121.35 35 121.49 34.8C121.59 34.55 123.58 35.28 126.09 35.08C128.6 34.92 130.47 33.92 130.6 34.16Z" fill="#E0E0E0"/>
<path d="M130.29 38.48C130.48 38.64 128.72 40.2 125.99 40.18C123.26 40.2 121.5 38.64 121.69 38.48C121.83 38.25 123.59 39.29 125.99 39.26C128.39 39.29 130.15 38.25 130.29 38.48Z" fill="#E0E0E0"/>
<path d="M114.83 124.69C113.94 126.13 112.04 126.57 110.61 125.68C109.17 124.79 108.73 122.89 109.62 121.46C110.51 120.03 112.41 119.58 113.85 120.47C115.29 121.36 115.73 123.26 114.84 124.7L114.83 124.69Z" fill="#E0E0E0"/>
<path d="M114.99 123.59C114.7 123.62 114.25 120.39 114.53 116.44C114.82 112.5 115.16 109.36 115.43 109.36C115.74 109.36 115.88 112.59 115.59 116.51C115.31 120.41 115.28 123.57 114.98 123.6L114.99 123.59Z" fill="#E0E0E0"/>
<path d="M125.05 111.9C125.14 112.13 122.78 113.12 119.72 112.59C118.21 112.34 116.91 111.68 116.16 110.99C115.38 110.3 115.21 109.63 115.33 109.58C115.47 109.49 115.84 109.94 116.62 110.39C117.38 110.85 118.55 111.31 119.91 111.55C122.65 112.04 124.99 111.58 125.05 111.91V111.9Z" fill="#E0E0E0"/>
<path d="M124.44 127.24C123.55 128.68 121.65 129.12 120.22 128.23C118.78 127.34 118.34 125.44 119.23 124.01C120.12 122.57 122.02 122.13 123.45 123.02C124.89 123.91 125.33 125.81 124.44 127.24Z" fill="#E0E0E0"/>
<path d="M124.6 126.14C124.31 126.17 123.86 122.94 124.14 118.99C124.43 115.05 124.77 111.91 125.04 111.91C125.35 111.91 125.49 115.14 125.2 119.06C124.92 122.96 124.89 126.12 124.59 126.15L124.6 126.14Z" fill="#E0E0E0"/>
<path d="M125 114C125.13 114.25 122.94 115.34 120.05 114.94C117.16 114.57 115.33 112.94 115.52 112.74C115.69 112.48 117.6 113.56 120.19 113.89C122.78 114.26 124.9 113.7 125 114Z" fill="#E0E0E0"/>
<path d="M378.8 195.02C377.91 196.46 376.01 196.9 374.57 196.01C373.13 195.12 372.69 193.22 373.58 191.79C374.47 190.36 376.37 189.91 377.8 190.8C379.24 191.69 379.68 193.59 378.79 195.03L378.8 195.02Z" fill="#E0E0E0"/>
<path d="M378.96 193.92C378.67 193.95 378.22 190.72 378.5 186.77C378.79 182.83 379.13 179.69 379.4 179.69C379.71 179.69 379.85 182.92 379.56 186.84C379.28 190.74 379.25 193.9 378.95 193.93L378.96 193.92Z" fill="#E0E0E0"/>
<path d="M389.01 182.24C389.1 182.47 386.74 183.46 383.68 182.93C382.17 182.68 380.87 182.02 380.12 181.33C379.34 180.64 379.17 179.97 379.29 179.92C379.43 179.83 379.8 180.28 380.58 180.73C381.34 181.19 382.51 181.65 383.87 181.89C386.61 182.38 388.95 181.92 389.01 182.25V182.24Z" fill="#E0E0E0"/>
<path d="M388.4 197.58C387.51 199.02 385.61 199.46 384.17 198.57C382.73 197.68 382.29 195.78 383.18 194.35C384.07 192.91 385.97 192.47 387.4 193.36C388.84 194.25 389.28 196.15 388.39 197.58H388.4Z" fill="#E0E0E0"/>
<path d="M388.56 196.47C388.27 196.5 387.82 193.27 388.1 189.32C388.39 185.38 388.73 182.24 389 182.24C389.31 182.24 389.45 185.47 389.16 189.39C388.88 193.29 388.85 196.45 388.55 196.48L388.56 196.47Z" fill="#E0E0E0"/>
<path d="M388.96 184.33C389.09 184.58 386.9 185.67 384.01 185.27C381.12 184.9 379.29 183.27 379.48 183.07C379.65 182.81 381.56 183.89 384.15 184.22C386.74 184.59 388.86 184.03 388.96 184.33Z" fill="#E0E0E0"/>
<path d="M216.62 372.23H167.97V385.1H216.62V372.23Z" fill="#EBEBEB"/>
<path d="M197.74 398.24C197.74 398.24 197.74 398.16 197.72 398.01L197.7 397.35C197.7 396.74 197.68 395.9 197.66 394.82C197.64 392.6 197.61 389.4 197.58 385.38L197.73 385.53C186.62 385.55 168.95 385.59 149.08 385.63C149.19 385.52 148.83 385.88 149.32 385.38V388.67C149.32 389.76 149.32 390.84 149.32 391.92C149.32 394.07 149.32 396.18 149.32 398.25L149.08 398.01C162.93 398.05 175.06 398.09 183.75 398.12C188.08 398.15 191.56 398.17 193.98 398.19C195.16 398.2 196.09 398.21 196.75 398.22C197.05 398.22 197.29 398.23 197.47 398.24C197.63 398.24 197.72 398.25 197.73 398.26C197.73 398.26 197.66 398.27 197.5 398.28L196.81 398.3C196.16 398.3 195.25 398.32 194.1 398.33C191.69 398.35 188.23 398.37 183.92 398.4C175.18 398.43 163 398.47 149.08 398.51H148.84V398.27C148.84 396.2 148.84 394.09 148.84 391.94C148.84 390.87 148.84 389.78 148.84 388.69V385.42V385.4C149.34 384.9 148.98 385.26 149.09 385.15C168.96 385.19 186.63 385.22 197.74 385.25H197.89V385.4C197.85 389.47 197.83 392.69 197.81 394.93C197.79 396 197.78 396.83 197.77 397.43C197.77 397.69 197.76 397.9 197.75 398.06C197.75 398.2 197.75 398.27 197.74 398.26V398.24Z" fill="#E0E0E0"/>
<path d="M412.58 274.52H363.93V287.39H412.58V274.52Z" fill="#EBEBEB"/>
<path d="M107.99 67.87H59.3401V80.74H107.99V67.87Z" fill="#EBEBEB"/>
<path d="M427.21 59.4H378.56V72.27H427.21V59.4Z" fill="#EBEBEB"/>
<path d="M408.33 85.41C408.33 85.41 408.33 85.33 408.31 85.18L408.29 84.52C408.29 83.91 408.27 83.07 408.25 81.99C408.23 79.77 408.2 76.57 408.17 72.55L408.32 72.7C397.21 72.72 379.54 72.76 359.67 72.8C359.78 72.69 359.42 73.05 359.91 72.55V75.84C359.91 76.93 359.91 78.01 359.91 79.09C359.91 81.24 359.91 83.35 359.91 85.42L359.67 85.18C373.52 85.22 385.65 85.26 394.34 85.29C398.67 85.32 402.15 85.34 404.57 85.36C405.75 85.37 406.68 85.38 407.34 85.39C407.64 85.39 407.88 85.4 408.06 85.41C408.22 85.41 408.31 85.42 408.32 85.43C408.32 85.43 408.25 85.44 408.09 85.45L407.4 85.47C406.75 85.47 405.84 85.49 404.69 85.5C402.28 85.52 398.82 85.54 394.51 85.57C385.77 85.6 373.59 85.64 359.67 85.68H359.43V85.44C359.43 83.37 359.43 81.26 359.43 79.11C359.43 78.04 359.43 76.95 359.43 75.86V72.59V72.57C359.93 72.07 359.57 72.43 359.68 72.32C379.55 72.36 397.22 72.39 408.33 72.42H408.48V72.57C408.44 76.64 408.42 79.86 408.4 82.1C408.38 83.17 408.37 84 408.36 84.6C408.36 84.86 408.35 85.07 408.34 85.23C408.34 85.37 408.34 85.44 408.33 85.43V85.41Z" fill="#E0E0E0"/>
<path d="M89.41 195.94C89.41 195.94 89.41 195.86 89.4 195.71L89.38 195.05C89.38 194.44 89.36 193.6 89.34 192.52C89.32 190.3 89.29 187.1 89.26 183.08L89.41 183.23C78.3 183.25 60.63 183.29 40.76 183.33C40.87 183.22 40.51 183.58 41 183.08V186.37C41 187.46 41 188.54 41 189.62C41 191.77 41 193.88 41 195.95L40.76 195.71C54.61 195.75 66.74 195.79 75.43 195.82C79.76 195.85 83.24 195.87 85.66 195.89C86.84 195.9 87.77 195.91 88.43 195.92C88.73 195.92 88.97 195.93 89.15 195.94C89.31 195.94 89.4 195.95 89.41 195.96C89.41 195.96 89.34 195.97 89.18 195.98C89 195.98 88.77 195.98 88.49 196C87.84 196 86.93 196.02 85.78 196.03C83.37 196.05 79.91 196.07 75.6 196.1C66.86 196.13 54.68 196.17 40.76 196.21H40.52V195.97C40.52 193.9 40.52 191.79 40.52 189.64C40.52 188.57 40.52 187.48 40.52 186.39C40.52 185.84 40.52 185.3 40.52 184.75V183.12V183.1C41.02 182.6 40.66 182.96 40.77 182.85C60.64 182.89 78.31 182.92 89.42 182.95H89.57V183.1C89.53 187.17 89.51 190.39 89.49 192.63C89.47 193.7 89.46 194.53 89.45 195.13L89.43 195.76C89.43 195.9 89.43 195.97 89.41 195.96V195.94Z" fill="#E0E0E0"/>
<path d="M96 183.06C96 183.06 95.99 182.97 95.98 182.82C95.98 182.64 95.97 182.41 95.96 182.14C95.95 181.51 95.93 180.65 95.92 179.56C95.9 177.3 95.86 174.12 95.82 170.2L96 170.38C88.43 170.4 78.12 170.42 66.77 170.45C66.55 170.67 67.07 170.15 67.02 170.2V173.55C67.02 174.66 67.02 175.75 67.02 176.83C67.02 178.98 67.02 181.07 67.02 183.07L66.78 182.83C75.22 182.88 82.48 182.91 87.69 182.94C90.26 182.97 92.32 182.99 93.78 183.01C94.46 183.02 95.01 183.03 95.42 183.04C95.8 183.04 96 183.06 96.01 183.07C96.01 183.07 95.84 183.09 95.48 183.1C95.08 183.1 94.55 183.12 93.89 183.13C92.44 183.15 90.4 183.17 87.85 183.2C82.6 183.23 75.28 183.27 66.78 183.31H66.54V183.07C66.54 181.07 66.54 178.98 66.54 176.83C66.54 175.75 66.54 174.66 66.54 173.55V170.22V170.2C66.49 170.25 67.01 169.73 66.79 169.95C78.14 169.98 88.45 170 96.02 170.02H96.2V170.2C96.16 174.16 96.13 177.39 96.1 179.67C96.08 180.74 96.07 181.59 96.06 182.21C96.05 182.79 96.03 183.08 96.02 183.07L96 183.06Z" fill="#E0E0E0"/>
<path d="M455.82 195.69C455.82 195.69 455.82 195.61 455.81 195.46L455.79 194.8C455.79 194.19 455.77 193.35 455.75 192.27C455.73 190.05 455.7 186.85 455.67 182.83L455.82 182.98C444.71 183 427.04 183.04 407.17 183.08C407.28 182.97 406.92 183.33 407.41 182.83V186.12C407.41 187.21 407.41 188.29 407.41 189.37C407.41 191.52 407.41 193.63 407.41 195.7L407.17 195.46C421.02 195.5 433.15 195.54 441.84 195.57C446.17 195.6 449.65 195.62 452.07 195.64C453.25 195.65 454.18 195.66 454.84 195.67C455.14 195.67 455.38 195.68 455.56 195.69C455.72 195.69 455.81 195.7 455.82 195.71C455.82 195.71 455.75 195.72 455.59 195.73C455.41 195.73 455.18 195.73 454.9 195.75C454.25 195.75 453.34 195.77 452.19 195.78C449.78 195.8 446.32 195.82 442.01 195.85C433.27 195.88 421.09 195.92 407.17 195.96H406.93V195.72C406.93 193.65 406.93 191.54 406.93 189.39C406.93 188.32 406.93 187.23 406.93 186.14C406.93 185.59 406.93 185.05 406.93 184.5V182.87V182.85C407.43 182.35 407.07 182.71 407.18 182.6C427.05 182.64 444.72 182.67 455.83 182.7H455.98V182.85C455.94 186.92 455.92 190.14 455.9 192.38C455.88 193.45 455.87 194.28 455.86 194.88L455.84 195.51C455.84 195.65 455.84 195.72 455.82 195.71V195.69Z" fill="#E0E0E0"/>
<path d="M462.42 182.82C462.42 182.82 462.41 182.73 462.4 182.58C462.4 182.4 462.39 182.17 462.38 181.9C462.37 181.27 462.35 180.41 462.34 179.32C462.32 177.06 462.28 173.88 462.24 169.96L462.42 170.14C454.85 170.16 444.54 170.18 433.19 170.21C432.97 170.43 433.49 169.91 433.44 169.96V171.64C433.44 172.2 433.44 172.76 433.44 173.31C433.44 174.42 433.44 175.51 433.44 176.59C433.44 178.74 433.44 180.83 433.44 182.83L433.2 182.59C441.64 182.64 448.9 182.67 454.11 182.7C456.68 182.73 458.74 182.75 460.2 182.77C460.88 182.78 461.43 182.79 461.84 182.8C462.22 182.8 462.42 182.82 462.43 182.83C462.43 182.83 462.26 182.85 461.9 182.86C461.5 182.86 460.97 182.88 460.31 182.89C458.86 182.91 456.82 182.93 454.27 182.96C449.02 182.99 441.7 183.03 433.2 183.07H432.96V182.83C432.96 180.83 432.96 178.74 432.96 176.59C432.96 175.51 432.96 174.42 432.96 173.31V169.98V169.96C432.91 170.01 433.43 169.49 433.21 169.71C444.56 169.74 454.87 169.76 462.44 169.78H462.62V169.96C462.58 173.92 462.55 177.15 462.52 179.43C462.5 180.5 462.49 181.35 462.48 181.97C462.47 182.55 462.45 182.84 462.44 182.83L462.42 182.82Z" fill="#E0E0E0"/>
<path d="M127.85 268.53C127.85 268.53 127.84 268.45 127.83 268.3L127.81 267.64C127.81 267.03 127.79 266.19 127.77 265.11C127.75 262.89 127.72 259.69 127.69 255.67L127.84 255.82C116.73 255.84 99.06 255.88 79.19 255.92C79.3 255.81 78.94 256.17 79.43 255.67V258.96C79.43 260.05 79.43 261.13 79.43 262.21C79.43 264.36 79.43 266.47 79.43 268.54L79.19 268.3C93.04 268.34 105.17 268.38 113.86 268.41C118.19 268.44 121.67 268.46 124.09 268.48C125.27 268.49 126.2 268.5 126.86 268.51C127.16 268.51 127.4 268.52 127.58 268.53C127.74 268.53 127.83 268.54 127.84 268.55C127.84 268.55 127.77 268.56 127.61 268.57C127.43 268.57 127.2 268.57 126.92 268.59C126.27 268.59 125.36 268.61 124.21 268.62C121.8 268.64 118.34 268.66 114.03 268.69C105.29 268.72 93.11 268.76 79.19 268.8H78.95V268.56C78.95 266.49 78.95 264.38 78.95 262.23C78.95 261.16 78.95 260.07 78.95 258.98C78.95 258.43 78.95 257.89 78.95 257.34V255.71V255.69C79.45 255.19 79.09 255.55 79.2 255.44C99.07 255.48 116.74 255.51 127.85 255.54H128V255.69C127.96 259.76 127.94 262.98 127.92 265.22C127.9 266.29 127.89 267.12 127.88 267.72L127.86 268.35C127.86 268.49 127.86 268.56 127.84 268.55L127.85 268.53Z" fill="#E0E0E0"/>
<path d="M414.46 447.14C414.46 447.14 409.62 413.89 410.03 394.54C410.43 375.19 410.01 353.43 410.01 353.43H412.24C412.24 353.43 410.73 391.83 412.37 415C414.01 438.14 418.34 447.15 418.34 447.15H414.47" fill="#E0E0E0"/>
<path d="M428.87 316C428.42 314.86 427.87 313.68 426.84 313.03C425.43 312.13 423.57 312.51 421.99 313.06C415.26 315.44 409.29 328 406.56 334.6L415.5 364.73C431.64 349.76 434.43 330.12 428.86 316H428.87Z" fill="#EBEBEB"/>
<path d="M426.32 314.25C426.32 314.25 426.29 314.39 426.19 314.64C426.07 314.93 425.93 315.29 425.75 315.74C425.36 316.69 424.81 318.07 424.15 319.78C422.83 323.2 421.16 327.98 419.66 333.37C418.17 338.76 417.14 343.73 416.5 347.34C416.18 349.15 415.94 350.61 415.79 351.62C415.71 352.09 415.65 352.48 415.6 352.79C415.55 353.06 415.52 353.2 415.51 353.19C415.5 353.19 415.51 353.05 415.53 352.78C415.56 352.47 415.6 352.08 415.65 351.6C415.76 350.58 415.96 349.11 416.25 347.29C416.82 343.66 417.81 338.68 419.31 333.27C420.81 327.87 422.53 323.08 423.92 319.68C424.61 317.98 425.2 316.61 425.63 315.68C425.83 315.24 426 314.89 426.13 314.61C426.25 314.37 426.32 314.24 426.33 314.25H426.32Z" fill="#E0E0E0"/>
<path d="M411.53 371.96C403.15 367.33 398.21 358.62 397.75 349.05C397.43 342.36 399.48 335.8 401.81 329.53C402.01 328.99 402.25 328.4 402.76 328.11C403.46 327.71 404.34 328.07 405.04 328.47C411.13 331.94 414.82 338.55 416.78 345.28C418.09 349.76 418.76 354.48 418.16 359.1C417.56 363.72 414.91 368.75 411.53 371.96Z" fill="#E0E0E0"/>
<path d="M411.53 371.96C411.53 371.96 411.51 371.82 411.5 371.56C411.5 371.25 411.49 370.87 411.48 370.4C411.48 369.4 411.44 367.94 411.35 366.15C411.19 362.57 410.72 357.63 409.79 352.23C408.86 346.83 407.73 342 406.9 338.51C406.49 336.8 406.15 335.4 405.91 334.37C405.81 333.91 405.72 333.54 405.65 333.24C405.6 332.98 405.57 332.84 405.58 332.84C405.59 332.84 405.64 332.97 405.72 333.22C405.81 333.51 405.91 333.88 406.04 334.33C406.32 335.3 406.7 336.7 407.15 338.44C408.05 341.92 409.22 346.75 410.15 352.16C411.08 357.57 411.51 362.53 411.6 366.13C411.65 367.93 411.65 369.38 411.6 370.39C411.58 370.86 411.57 371.24 411.55 371.55C411.54 371.81 411.52 371.95 411.51 371.95L411.53 371.96Z" fill="#EBEBEB"/>
<path d="M420.99 422.84C429.24 424.65 436.03 430.47 443.99 433.3C449.25 435.17 455.21 435.83 459.41 439.52C458.4 436.97 456.01 435.28 453.69 433.83C447.15 429.74 440.14 426.4 432.85 423.88C429.11 422.59 425.04 421.51 421.23 422.57" fill="#EBEBEB"/>
<path d="M409.06 430.19C398.73 430.02 387.85 421.23 377.57 420.7C388.33 417.23 403.74 420.06 409.06 430.19Z" fill="#EBEBEB"/>
<path d="M413.1 405.41C418.35 403.52 424.1 403.43 429.61 404.29C435.12 405.15 440.44 406.91 445.73 408.67C445.2 405.09 442.3 402.39 439.57 400.01C437.52 398.22 435.45 396.41 433.1 395.03C430.75 393.66 428.06 392.72 425.34 392.84C422.05 392.98 418.93 394.67 416.77 397.16C414.62 399.64 413.46 402.14 413.1 405.41Z" fill="#EBEBEB"/>
<path d="M391.9 394C385.4 388.45 375.55 388.99 367 389.18C380.14 395.46 394.3 404.08 405.61 413.24C405.96 407.2 400.11 401.01 391.89 393.99L391.9 394Z" fill="#EBEBEB"/>
<path d="M416.02 386.34C419.29 384.16 422.6 382.08 426.02 380.53C429.44 378.98 432.64 376.5 435.94 374.71C440.23 372.39 443.94 369.16 447.87 366.29C451.8 363.41 456.13 360.82 460.94 360.05C457.01 359.24 452.91 359.68 449.05 360.74C445.18 361.8 441.51 363.45 437.86 365.1C432.79 367.38 427.63 369.73 423.48 373.44C419.33 377.15 415.59 380.81 416.02 386.36" fill="#EBEBEB"/>
<path d="M443.8 430.19C443.8 430.19 443.68 430.15 443.47 430.05C443.23 429.92 442.93 429.77 442.57 429.58C441.79 429.17 440.68 428.55 439.27 427.85C438.57 427.48 437.8 427.1 436.97 426.71C436.14 426.3 435.24 425.89 434.29 425.48C432.38 424.67 430.25 423.82 427.93 423.26C425.61 422.69 423.31 422.57 421.3 423.09C420.29 423.33 419.34 423.57 418.49 423.93C417.64 424.27 416.88 424.68 416.22 425.09C414.9 425.92 413.97 426.81 413.37 427.44C412.77 428.08 412.48 428.47 412.45 428.45C412.44 428.45 412.5 428.34 412.64 428.15C412.77 427.96 412.98 427.68 413.26 427.34C413.83 426.67 414.74 425.74 416.07 424.86C416.73 424.42 417.5 424 418.36 423.63C419.22 423.26 420.19 423 421.21 422.74C423.26 422.18 425.65 422.3 428 422.88C430.36 423.44 432.5 424.31 434.41 425.14C435.37 425.56 436.26 425.98 437.09 426.41C437.92 426.82 438.69 427.21 439.38 427.6C440.77 428.34 441.87 428.99 442.63 429.44L443.5 429.97C443.7 430.09 443.8 430.16 443.79 430.18L443.8 430.19Z" fill="#E0E0E0"/>
<path d="M401.36 425.07C401.36 425.07 401.6 425.11 402.01 425.26C402.42 425.4 403 425.65 403.69 425.99C405.08 426.68 406.91 427.85 408.63 429.49C410.34 431.14 411.58 432.92 412.33 434.28C412.7 434.96 412.97 435.53 413.13 435.93C413.29 436.33 413.37 436.56 413.35 436.57C413.29 436.6 412.91 435.72 412.11 434.41C411.32 433.1 410.07 431.38 408.39 429.75C406.7 428.13 404.93 426.95 403.59 426.22C402.25 425.48 401.36 425.13 401.38 425.07H401.36Z" fill="#E0E0E0"/>
<path d="M378.5 393.48C378.5 393.48 378.66 393.51 378.94 393.61C379.26 393.72 379.67 393.87 380.18 394.05C380.73 394.25 381.38 394.49 382.13 394.77C382.89 395.05 383.72 395.47 384.66 395.88C388.38 397.57 393.33 400.41 398.11 404.45C400.47 406.5 402.6 408.59 404.38 410.63C406.16 412.67 407.66 414.59 408.83 416.27C410.01 417.94 410.9 419.33 411.52 420.29C411.81 420.74 412.04 421.11 412.23 421.4C412.39 421.65 412.47 421.79 412.46 421.8C412.45 421.8 412.35 421.68 412.17 421.44C411.99 421.2 411.73 420.84 411.4 420.37C410.75 419.43 409.82 418.06 408.62 416.42C407.43 414.77 405.91 412.87 404.13 410.85C402.34 408.83 400.22 406.77 397.87 404.73C393.12 400.72 388.23 397.86 384.55 396.12C383.63 395.69 382.81 395.26 382.06 394.96C381.32 394.66 380.68 394.4 380.13 394.18C379.63 393.97 379.23 393.8 378.92 393.67C378.64 393.55 378.5 393.48 378.5 393.47V393.48Z" fill="#E0E0E0"/>
<path d="M428.6 399.6C428.6 399.6 428.3 399.59 427.78 399.49C427.5 399.44 427.18 399.38 426.83 399.31C426.46 399.24 426.03 399.24 425.56 399.19C423.7 399.06 421 399.21 418.46 400.59C417.18 401.24 416.11 402.11 415.23 402.99C414.34 403.86 413.66 404.77 413.15 405.56C412.11 407.15 411.79 408.29 411.73 408.27C411.71 408.27 411.77 407.97 411.94 407.46C412.13 406.96 412.42 406.23 412.93 405.42C413.42 404.6 414.09 403.65 414.99 402.75C415.87 401.84 416.97 400.93 418.29 400.27C420.91 398.84 423.7 398.73 425.58 398.94C426.06 399.01 426.49 399.03 426.86 399.12C427.21 399.21 427.52 399.29 427.81 399.36C428.33 399.5 428.61 399.58 428.6 399.61V399.6Z" fill="#E0E0E0"/>
<path d="M438.98 367.39C438.98 367.39 438.85 367.48 438.59 367.63C438.29 367.79 437.91 368 437.44 368.26C436.44 368.8 435 369.6 433.24 370.63C431.5 371.68 429.44 372.96 427.26 374.52C425.08 376.09 422.74 377.91 420.58 380.12C419.51 381.23 418.53 382.39 417.85 383.66C417.17 384.96 416.53 386.22 415.93 387.42C414.74 389.83 413.76 392.05 413.06 393.95C412.36 395.86 411.92 397.44 411.66 398.55C411.4 399.66 411.3 400.28 411.26 400.27C411.25 400.27 411.26 400.11 411.3 399.81C411.34 399.51 411.4 399.07 411.51 398.51C411.73 397.39 412.13 395.78 412.8 393.85C413.48 391.92 414.43 389.68 415.61 387.26C416.2 386.05 416.84 384.78 417.51 383.48C418.22 382.16 419.22 380.98 420.3 379.85C422.49 377.61 424.85 375.79 427.05 374.23C429.26 372.68 431.33 371.41 433.1 370.39C434.87 369.38 436.34 368.62 437.36 368.12C437.85 367.89 438.24 367.7 438.55 367.56C438.82 367.43 438.97 367.37 438.97 367.39H438.98Z" fill="#E0E0E0"/>
<path d="M410.01 398.67C410.01 398.67 409.91 398.36 409.81 397.8C409.69 397.16 409.54 396.36 409.36 395.41C408.97 393.4 408.36 390.63 407.41 387.66C406.46 384.68 405.3 382.1 404.46 380.23C404.06 379.35 403.72 378.61 403.45 378.02C403.22 377.5 403.1 377.2 403.12 377.19C403.14 377.18 403.31 377.45 403.58 377.96C403.85 378.46 404.24 379.2 404.69 380.12C405.6 381.96 406.8 384.55 407.76 387.55C408.73 390.54 409.29 393.34 409.62 395.37C409.78 396.39 409.9 397.21 409.96 397.78C410.02 398.35 410.05 398.67 410.02 398.67H410.01Z" fill="#E0E0E0"/>
<path d="M409.27 375.17C409.01 371.27 407.74 367.48 405.91 364.02C400.9 354.54 391.47 347.51 380.96 345.41C388.66 356.89 396.36 368.36 404.06 379.84L407.04 385.99C409.08 382.65 409.53 379.08 409.27 375.17Z" fill="#EBEBEB"/>
<path d="M442.41 443.02H388.69V452.54H442.41V443.02Z" fill="#EBEBEB"/>
<path d="M392.7 450.65L397.27 480.2H432.93L438.39 450.65H392.7Z" fill="#EBEBEB"/>
<path d="M442.37 452.55C442.37 452.65 430.25 452.74 415.31 452.74C400.37 452.74 388.25 452.66 388.25 452.55C388.25 452.44 400.36 452.36 415.31 452.36C430.26 452.36 442.37 452.44 442.37 452.55Z" fill="#E0E0E0"/>
<path d="M458.56 480.44C458.56 480.58 365.18 480.7 250.01 480.7C134.84 480.7 41.4399 480.58 41.4399 480.44C41.4399 480.3 134.8 480.18 250.01 480.18C365.22 480.18 458.56 480.3 458.56 480.44Z" fill="#263238"/>
<path d="M95.3601 442.72C95.3601 442.72 90.9501 412.39 91.3201 394.74C91.6901 377.09 91.3001 357.23 91.3001 357.23H93.3301C93.3301 357.23 91.9501 392.26 93.4501 413.39C94.9501 434.5 98.8901 442.72 98.8901 442.72H95.3601Z" fill="#263238"/>
<path d="M108.51 323.1C108.1 322.06 107.6 320.98 106.66 320.39C105.37 319.57 103.68 319.91 102.24 320.42C96.1002 322.59 90.6502 334.05 88.1702 340.07L96.3302 367.55C111.05 353.89 113.6 335.98 108.52 323.1H108.51Z" fill="#455A64"/>
<path d="M106.18 321.5C106.18 321.5 106.15 321.63 106.06 321.86C105.96 322.12 105.82 322.45 105.66 322.86C105.3 323.72 104.8 324.98 104.2 326.54C103 329.66 101.47 334.02 100.1 338.94C98.7401 343.86 97.8001 348.39 97.2201 351.68C96.9301 353.33 96.7101 354.66 96.5701 355.59C96.5001 356.02 96.4401 356.37 96.4001 356.65C96.3601 356.89 96.3301 357.02 96.3201 357.02C96.3101 357.02 96.3201 356.89 96.3401 356.64C96.3701 356.36 96.4101 356 96.4501 355.57C96.5501 354.64 96.7301 353.3 96.9901 351.64C97.5101 348.33 98.4101 343.78 99.7801 338.85C101.15 333.92 102.72 329.56 103.98 326.45C104.61 324.9 105.14 323.65 105.54 322.8C105.73 322.4 105.88 322.08 106 321.82C106.11 321.6 106.17 321.48 106.18 321.49V321.5Z" fill="#263238"/>
<path d="M92.6901 374.14C85.0501 369.92 80.5401 361.97 80.1201 353.24C79.8301 347.14 81.7001 341.16 83.8201 335.43C84.0001 334.93 84.2201 334.4 84.6801 334.14C85.3201 333.78 86.1201 334.1 86.7601 334.46C92.3201 337.62 95.6801 343.65 97.4701 349.79C98.6601 353.87 99.2801 358.18 98.7301 362.4C98.1801 366.62 95.7701 371.21 92.6801 374.13" fill="#455A64"/>
<path d="M92.6901 374.14C92.6901 374.14 92.6701 374.01 92.6601 373.77C92.6601 373.49 92.6501 373.14 92.6401 372.72C92.6401 371.8 92.6001 370.48 92.5301 368.85C92.3801 365.58 91.9501 361.08 91.1101 356.15C90.2601 351.23 89.2301 346.82 88.4701 343.63C88.1001 342.07 87.7901 340.79 87.5701 339.86C87.4701 339.44 87.4001 339.1 87.3301 338.83C87.2801 338.59 87.2601 338.47 87.2701 338.47C87.2801 338.47 87.3201 338.59 87.4001 338.82C87.4801 339.09 87.5801 339.42 87.7001 339.83C87.9501 340.71 88.3001 341.99 88.7101 343.58C89.5301 346.75 90.6001 351.16 91.4501 356.1C92.3001 361.04 92.6901 365.56 92.7801 368.84C92.8201 370.48 92.8301 371.81 92.7801 372.72C92.7601 373.15 92.7501 373.5 92.7401 373.78C92.7301 374.02 92.7101 374.15 92.7001 374.15L92.6901 374.14Z" fill="#263238"/>
<g opacity="0.3">
<path d="M92.6901 374.14C85.0501 369.92 80.5401 361.97 80.1201 353.24C79.8301 347.14 81.7001 341.16 83.8201 335.43C84.0001 334.93 84.2201 334.4 84.6801 334.14C85.3201 333.78 86.1201 334.1 86.7601 334.46C92.3201 337.62 95.6801 343.65 97.4701 349.79C98.6601 353.87 99.2801 358.18 98.7301 362.4C98.1801 366.62 95.7701 371.21 92.6801 374.13" fill="black"/>
</g>
<path d="M101.32 420.55C108.84 422.2 115.04 427.51 122.3 430.09C127.1 431.8 132.53 432.4 136.37 435.76C135.45 433.44 133.27 431.89 131.15 430.57C125.18 426.84 118.79 423.79 112.14 421.49C108.73 420.31 105.02 419.33 101.54 420.3" fill="#455A64"/>
<path d="M90.44 427.25C81.02 427.1 71.1 419.08 61.72 418.6C71.54 415.43 85.59 418.02 90.44 427.25Z" fill="#455A64"/>
<path d="M94.1201 404.65C98.9001 402.93 104.16 402.84 109.18 403.62C114.21 404.4 119.06 406.01 123.89 407.62C123.41 404.35 120.76 401.89 118.27 399.72C116.4 398.08 114.51 396.43 112.36 395.18C110.21 393.93 107.76 393.08 105.28 393.18C102.28 393.31 99.4301 394.85 97.4601 397.12C95.4901 399.39 94.4401 401.67 94.1101 404.65" fill="#455A64"/>
<path d="M74.7801 394.25C68.8501 389.19 59.8601 389.68 52.0701 389.86C64.0601 395.59 76.9701 403.45 87.2901 411.81C87.6101 406.3 82.2701 400.65 74.7801 394.25Z" fill="#455A64"/>
<g opacity="0.3">
<path d="M74.7801 394.25C68.8501 389.19 59.8601 389.68 52.0701 389.86C64.0601 395.59 76.9701 403.45 87.2901 411.81C87.6101 406.3 82.2701 400.65 74.7801 394.25Z" fill="black"/>
</g>
<path d="M96.79 387.26C99.77 385.27 102.79 383.38 105.91 381.96C109.03 380.54 111.94 378.28 114.96 376.65C118.87 374.53 122.26 371.59 125.85 368.97C129.44 366.35 133.38 363.98 137.77 363.28C134.19 362.54 130.45 362.94 126.92 363.91C123.39 364.87 120.04 366.38 116.71 367.88C112.08 369.96 107.38 372.1 103.59 375.48C99.81 378.86 96.39 382.2 96.79 387.26Z" fill="#455A64"/>
<path d="M122.12 427.25C122.12 427.25 122.01 427.22 121.82 427.12C121.6 427 121.33 426.86 121 426.69C120.29 426.31 119.27 425.75 117.99 425.11C117.35 424.77 116.65 424.42 115.89 424.07C115.13 423.69 114.31 423.32 113.44 422.95C111.7 422.21 109.76 421.43 107.64 420.93C105.53 420.41 103.42 420.3 101.6 420.78C100.68 421 99.81 421.22 99.04 421.54C98.27 421.85 97.57 422.22 96.97 422.6C95.76 423.36 94.92 424.17 94.37 424.75C93.82 425.33 93.56 425.69 93.53 425.67C93.53 425.67 93.58 425.57 93.7 425.39C93.82 425.21 94.01 424.96 94.27 424.66C94.79 424.05 95.62 423.2 96.84 422.4C97.44 422 98.14 421.61 98.93 421.28C99.72 420.94 100.6 420.7 101.53 420.47C103.4 419.96 105.58 420.07 107.72 420.6C109.87 421.11 111.83 421.9 113.57 422.67C114.44 423.06 115.26 423.44 116.01 423.83C116.77 424.2 117.47 424.56 118.1 424.91C119.37 425.58 120.37 426.18 121.07 426.59C121.39 426.78 121.65 426.94 121.86 427.07C122.04 427.18 122.13 427.25 122.12 427.26V427.25Z" fill="#263238"/>
<path d="M83.4102 422.59C83.4102 422.59 83.6302 422.63 84.0002 422.76C84.3702 422.89 84.9002 423.11 85.5402 423.43C86.8102 424.06 88.4802 425.12 90.0402 426.62C91.6002 428.13 92.7302 429.75 93.4102 430.99C93.7502 431.61 94.0002 432.13 94.1402 432.5C94.2902 432.87 94.3601 433.07 94.3401 433.08C94.2901 433.1 93.9302 432.31 93.2102 431.11C92.4902 429.91 91.3502 428.34 89.8102 426.86C88.2702 425.39 86.6502 424.31 85.4302 423.64C84.2102 422.96 83.3902 422.65 83.4202 422.59H83.4102Z" fill="#263238"/>
<path d="M62.5601 393.77C62.5601 393.77 62.7 393.8 62.96 393.89C63.25 393.99 63.63 394.13 64.09 394.29C64.59 394.48 65.1901 394.7 65.8701 394.95C66.5601 395.21 67.32 395.59 68.17 395.97C71.56 397.51 76.0801 400.1 80.4401 403.79C82.5901 405.66 84.5301 407.56 86.1601 409.42C87.7801 411.28 89.1501 413.04 90.2201 414.56C91.3001 416.08 92.11 417.35 92.67 418.23C92.93 418.64 93.15 418.98 93.31 419.24C93.46 419.47 93.53 419.6 93.52 419.6C93.52 419.6 93.4201 419.49 93.2601 419.27C93.1001 419.05 92.86 418.72 92.56 418.29C91.97 417.43 91.12 416.19 90.03 414.68C88.94 413.17 87.56 411.44 85.93 409.6C84.3001 407.76 82.3601 405.88 80.2201 404.02C75.8901 400.36 71.42 397.75 68.07 396.16C67.23 395.77 66.4801 395.38 65.8001 395.1C65.1301 394.83 64.5401 394.59 64.0401 394.39C63.5901 394.2 63.22 394.05 62.93 393.93C62.68 393.82 62.55 393.76 62.55 393.75L62.5601 393.77Z" fill="#263238"/>
<path d="M108.26 399.35C108.26 399.35 107.99 399.34 107.51 399.25L106.64 399.09C106.3 399.02 105.91 399.02 105.48 398.98C103.79 398.86 101.32 399 99.0001 400.26C97.8301 400.85 96.8501 401.65 96.0501 402.45C95.2401 403.24 94.6201 404.07 94.1601 404.79C93.2101 406.24 92.9201 407.28 92.8601 407.26C92.8401 407.26 92.8901 406.99 93.0501 406.53C93.2201 406.07 93.4901 405.41 93.9501 404.67C94.4001 403.92 95.0101 403.06 95.8301 402.24C96.6401 401.41 97.6401 400.58 98.8401 399.97C101.23 398.67 103.78 398.57 105.49 398.75C105.92 398.81 106.32 398.83 106.66 398.91L107.52 399.13C107.99 399.25 108.25 399.33 108.24 399.35H108.26Z" fill="#263238"/>
<path d="M117.73 369.98C117.73 369.98 117.61 370.07 117.37 370.2C117.1 370.35 116.75 370.54 116.32 370.77C115.41 371.26 114.09 371.99 112.49 372.93C110.9 373.88 109.03 375.06 107.03 376.48C105.04 377.91 102.91 379.57 100.94 381.59C99.9701 382.6 99.0701 383.66 98.4501 384.82C97.8301 386.01 97.2401 387.15 96.7001 388.25C95.6101 390.45 94.7201 392.47 94.0801 394.21C93.4401 395.95 93.0401 397.4 92.8101 398.41C92.5701 399.42 92.4801 399.99 92.4501 399.98C92.4401 399.98 92.4501 399.84 92.4901 399.56C92.5201 399.29 92.5801 398.89 92.6901 398.38C92.8901 397.36 93.2501 395.89 93.8701 394.13C94.4901 392.37 95.3601 390.33 96.4301 388.11C96.9701 387 97.5501 385.85 98.1701 384.66C98.8201 383.45 99.7301 382.38 100.71 381.35C102.71 379.31 104.86 377.65 106.87 376.23C108.88 374.81 110.78 373.66 112.39 372.73C114.01 371.81 115.34 371.12 116.28 370.66C116.72 370.45 117.08 370.28 117.36 370.14C117.61 370.03 117.74 369.97 117.75 369.98H117.73Z" fill="#263238"/>
<path d="M91.3101 398.51C91.3101 398.51 91.2201 398.23 91.1201 397.72C91.0101 397.14 90.8701 396.41 90.7101 395.54C90.3501 393.71 89.8001 391.18 88.9301 388.47C88.0601 385.76 87.0101 383.39 86.2401 381.69C85.8701 380.89 85.5701 380.21 85.3201 379.67C85.1101 379.19 85.0001 378.92 85.0201 378.91C85.0401 378.9 85.1901 379.15 85.4401 379.61C85.6901 380.07 86.0401 380.74 86.4601 381.58C87.2901 383.26 88.3801 385.62 89.2601 388.36C90.1401 391.09 90.6601 393.64 90.9601 395.49C91.1101 396.42 91.2101 397.17 91.2701 397.69C91.3301 398.21 91.3501 398.5 91.3301 398.5L91.3101 398.51Z" fill="#263238"/>
<path d="M90.62 377.07C90.38 373.51 89.22 370.05 87.56 366.9C82.99 358.25 74.39 351.84 64.8 349.93C71.82 360.4 78.85 370.87 85.87 381.34L88.59 386.95C90.45 383.9 90.86 380.64 90.62 377.08V377.07Z" fill="#455A64"/>
<path d="M126.36 438.96H66.4299V449.58H126.36V438.96Z" fill="black"/>
<path d="M70.9099 447.48L78.1099 480.44H113.58L121.88 447.48H70.9099Z" fill="black"/>
<path d="M126.33 449.6C126.33 449.72 112.81 449.81 96.14 449.81C79.47 449.81 65.95 449.72 65.95 449.6C65.95 449.48 79.46 449.39 96.14 449.39C112.82 449.39 126.33 449.48 126.33 449.6Z" fill="#263238"/>
<path d="M298.19 115.69C287.41 109.95 274.76 108.47 262.57 106.41C244.22 103.32 225.9 98.59 209.97 89.49C203.99 86.07 197.72 80.52 199.17 74.08C200.15 69.74 204.46 66.74 208.87 65.2C213.28 63.66 218.06 63.16 222.45 61.53C226.11 60.17 229.9 56.29 227.65 53.26C226.52 51.74 224.37 51.3 222.42 51.03C196.75 47.44 170.97 52.85 151.42 65.01C143.86 69.71 138.87 77.79 138.47 86.69C138.24 91.79 139.45 96.74 142.41 100.37C149.18 108.66 160.39 112.53 171.25 114.72C202.08 120.96 234.33 116.99 265.44 121.86C274.96 123.35 285.46 126.48 289.78 134.59C291.64 138.08 292.08 142.06 293.27 145.79C294.46 149.53 296.77 153.34 300.68 154.64C307.17 156.8 313.79 150.59 315.12 144.24C317.5 132.81 308.96 121.43 298.18 115.69H298.19Z" fill="black"/>
<g opacity="0.8">
<path d="M298.19 115.69C287.41 109.95 274.76 108.47 262.57 106.41C244.22 103.32 225.9 98.59 209.97 89.49C203.99 86.07 197.72 80.52 199.17 74.08C200.15 69.74 204.46 66.74 208.87 65.2C213.28 63.66 218.06 63.16 222.45 61.53C226.11 60.17 229.9 56.29 227.65 53.26C226.52 51.74 224.37 51.3 222.42 51.03C196.75 47.44 170.97 52.85 151.42 65.01C143.86 69.71 138.87 77.79 138.47 86.69C138.24 91.79 139.45 96.74 142.41 100.37C149.18 108.66 160.39 112.53 171.25 114.72C202.08 120.96 234.33 116.99 265.44 121.86C274.96 123.35 285.46 126.48 289.78 134.59C291.64 138.08 292.08 142.06 293.27 145.79C294.46 149.53 296.77 153.34 300.68 154.64C307.17 156.8 313.79 150.59 315.12 144.24C317.5 132.81 308.96 121.43 298.18 115.69H298.19Z" fill="white"/>
</g>
<path d="M295.21 259.58C296.33 259.58 297.35 258.89 297.92 257.93C300.79 253.08 306.44 252.21 312.18 250.99C324.53 248.37 335.92 241.46 343.96 231.73C350.1 224.29 354.28 213.6 349.73 205.1C345.23 196.7 333.3 194.24 324.75 198.46C316.21 202.68 311.05 211.98 309.59 221.4C308.45 228.73 308.89 237.15 303.62 242.38C301.01 244.97 297.39 246.29 294.62 248.71C291.85 251.13 290.16 255.66 292.61 258.4C292.61 258.4 293.63 259.6 295.2 259.59L295.21 259.58Z" fill="black"/>
<g opacity="0.8">
<path d="M295.21 259.58C296.33 259.58 297.35 258.89 297.92 257.93C300.79 253.08 306.44 252.21 312.18 250.99C324.53 248.37 335.92 241.46 343.96 231.73C350.1 224.29 354.28 213.6 349.73 205.1C345.23 196.7 333.3 194.24 324.75 198.46C316.21 202.68 311.05 211.98 309.59 221.4C308.45 228.73 308.89 237.15 303.62 242.38C301.01 244.97 297.39 246.29 294.62 248.71C291.85 251.13 290.16 255.66 292.61 258.4C292.61 258.4 293.63 259.6 295.2 259.59L295.21 259.58Z" fill="white"/>
</g>
<path d="M330.78 170.67C330.78 174.88 327.37 178.29 323.16 178.29C318.95 178.29 315.54 174.88 315.54 170.67C315.54 166.46 318.95 163.05 323.16 163.05C327.37 163.05 330.78 166.46 330.78 170.67Z" fill="black"/>
<path opacity="0.8" d="M330.78 170.67C330.78 174.88 327.37 178.29 323.16 178.29C318.95 178.29 315.54 174.88 315.54 170.67C315.54 166.46 318.95 163.05 323.16 163.05C327.37 163.05 330.78 166.46 330.78 170.67Z" fill="white"/>
<path d="M164.3 138.29C167.061 138.29 169.3 136.051 169.3 133.29C169.3 130.529 167.061 128.29 164.3 128.29C161.539 128.29 159.3 130.529 159.3 133.29C159.3 136.051 161.539 138.29 164.3 138.29Z" fill="black"/>
<path opacity="0.8" d="M164.3 138.29C167.061 138.29 169.3 136.051 169.3 133.29C169.3 130.529 167.061 128.29 164.3 128.29C161.539 128.29 159.3 130.529 159.3 133.29C159.3 136.051 161.539 138.29 164.3 138.29Z" fill="white"/>
<path d="M323.98 222.08C323.75 223.91 322.08 225.21 320.24 224.98C318.41 224.75 317.11 223.08 317.34 221.24C317.57 219.41 319.24 218.11 321.08 218.34C322.91 218.57 324.21 220.24 323.98 222.08Z" fill="#263238"/>
<path d="M323.64 220.92C323.46 221.02 321.65 218 320.14 213.97C318.64 209.95 317.46 206.7 317.62 206.62C317.82 206.52 319.33 209.69 320.82 213.7C322.32 217.7 323.81 220.82 323.64 220.92Z" fill="#263238"/>
<path d="M324.2 203.74C324.37 203.82 323.45 205.46 321.43 206.42C319.42 207.4 317.56 207.09 317.61 206.9C317.61 206.68 319.3 206.64 321.11 205.75C322.93 204.89 324.02 203.6 324.2 203.73V203.74Z" fill="#263238"/>
<path d="M325.24 207.04C325.43 207.11 324.57 208.78 322.54 209.57C320.51 210.39 318.75 209.75 318.84 209.57C318.88 209.36 320.49 209.61 322.27 208.88C324.06 208.19 325.07 206.9 325.24 207.03V207.04Z" fill="#263238"/>
<path d="M189.95 64.16C189.72 65.99 188.05 67.29 186.21 67.06C184.38 66.83 183.08 65.16 183.31 63.32C183.54 61.49 185.21 60.19 187.05 60.42C188.88 60.65 190.18 62.32 189.95 64.16Z" fill="#263238"/>
<path d="M189.61 62.99C189.43 63.09 187.62 60.07 186.11 56.04C184.61 52.02 183.43 48.77 183.59 48.69C183.79 48.59 185.3 51.76 186.79 55.77C188.29 59.77 189.78 62.89 189.61 62.99Z" fill="#263238"/>
<path d="M190.17 45.81C190.34 45.89 189.42 47.53 187.4 48.49C185.39 49.47 183.53 49.16 183.58 48.97C183.58 48.75 185.27 48.71 187.08 47.82C188.9 46.96 189.99 45.67 190.17 45.8V45.81Z" fill="#263238"/>
<path d="M191.21 49.12C191.4 49.19 190.54 50.86 188.51 51.65C186.48 52.47 184.72 51.83 184.81 51.65C184.85 51.44 186.46 51.69 188.24 50.96C190.03 50.27 191.04 48.98 191.21 49.11V49.12Z" fill="#263238"/>
<path d="M349.33 207.15C347.77 209.22 344.82 209.63 342.75 208.07C340.68 206.51 340.27 203.56 341.83 201.49C343.39 199.42 346.34 199.01 348.41 200.57C350.48 202.13 350.89 205.08 349.33 207.15Z" fill="#263238"/>
<path d="M349.73 205.49C349.44 205.49 349.35 200.54 350.32 194.56C351.3 188.6 352.13 183.82 352.38 183.84C352.69 183.86 352.32 188.78 351.34 194.72C350.38 200.65 350.01 205.49 349.73 205.49Z" fill="#263238"/>
<path d="M362.42 184.92C362.57 185.14 360.3 186.5 357.17 186.26C354.04 186.05 351.99 184.38 352.17 184.18C352.32 183.92 354.42 185.05 357.25 185.23C360.07 185.46 362.31 184.64 362.42 184.93V184.92Z" fill="#263238"/>
<path d="M361.39 189.68C361.57 189.89 359.36 191.34 356.33 190.88C353.29 190.46 351.58 188.45 351.81 188.3C352 188.07 353.8 189.5 356.48 189.86C359.15 190.28 361.27 189.4 361.4 189.68H361.39Z" fill="#263238"/>
<path d="M325.33 134.37C324.24 135.82 322.17 136.11 320.73 135.01C319.28 133.92 318.99 131.85 320.09 130.41C321.18 128.96 323.25 128.67 324.69 129.77C326.14 130.86 326.43 132.93 325.33 134.37Z" fill="#263238"/>
<path d="M325.61 133.21C325.41 133.21 325.34 129.75 326.02 125.56C326.71 121.39 327.29 118.04 327.46 118.06C327.68 118.08 327.42 121.52 326.73 125.67C326.06 129.82 325.8 133.21 325.6 133.21H325.61Z" fill="#263238"/>
<path d="M334.49 118.82C334.6 118.98 333 119.92 330.82 119.75C328.63 119.6 327.19 118.43 327.32 118.29C327.43 118.11 328.89 118.9 330.87 119.03C332.85 119.19 334.41 118.62 334.49 118.82Z" fill="#263238"/>
<path d="M333.76 122.15C333.89 122.3 332.34 123.31 330.22 122.99C328.09 122.7 326.89 121.29 327.06 121.18C327.2 121.02 328.45 122.02 330.32 122.27C332.19 122.56 333.68 121.95 333.76 122.15Z" fill="#263238"/>
<path d="M212.86 120.86C212.31 122.59 210.46 123.54 208.73 122.99C207 122.44 206.05 120.59 206.6 118.86C207.15 117.13 209 116.18 210.73 116.73C212.46 117.28 213.41 119.13 212.86 120.86Z" fill="#263238"/>
<path d="M212.74 119.67C212.55 119.74 211.34 116.49 210.6 112.32C209.87 108.16 209.31 104.81 209.49 104.76C209.7 104.7 210.59 108.04 211.32 112.19C212.05 116.33 212.93 119.61 212.74 119.68V119.67Z" fill="#263238"/>
<path d="M216.37 103.15C216.52 103.26 215.33 104.68 213.21 105.25C211.09 105.83 209.35 105.2 209.43 105.03C209.47 104.82 211.12 105.08 213.03 104.55C214.95 104.05 216.24 102.99 216.38 103.15H216.37Z" fill="#263238"/>
<path d="M216.78 106.53C216.95 106.63 215.82 108.09 213.71 108.49C211.6 108.92 210.01 107.98 210.13 107.83C210.2 107.63 211.72 108.17 213.57 107.78C215.43 107.44 216.63 106.37 216.78 106.53Z" fill="#263238"/>
<path d="M156.02 71.72C154.93 73.17 152.86 73.46 151.42 72.36C149.97 71.27 149.68 69.2 150.78 67.75C151.87 66.3 153.94 66.01 155.38 67.11C156.83 68.2 157.12 70.27 156.02 71.72Z" fill="#263238"/>
<path d="M156.3 70.56C156.1 70.56 156.03 67.1 156.71 62.91C157.4 58.74 157.98 55.39 158.15 55.41C158.37 55.43 158.11 58.87 157.42 63.02C156.75 67.17 156.49 70.56 156.29 70.56H156.3Z" fill="#263238"/>
<path d="M165.18 56.17C165.29 56.33 163.69 57.27 161.51 57.1C159.32 56.95 157.88 55.78 158.01 55.64C158.12 55.46 159.58 56.25 161.56 56.38C163.54 56.54 165.1 55.97 165.18 56.17Z" fill="#263238"/>
<path d="M164.46 59.5C164.59 59.65 163.04 60.66 160.92 60.34C158.79 60.05 157.59 58.64 157.76 58.53C157.9 58.37 159.15 59.37 161.02 59.62C162.89 59.91 164.38 59.3 164.46 59.5Z" fill="#263238"/>
<path d="M326.7 255C325.81 256.64 323.76 257.25 322.12 256.36C320.48 255.47 319.87 253.42 320.76 251.78C321.65 250.14 323.7 249.53 325.34 250.42C326.98 251.31 327.59 253.36 326.7 255Z" fill="#263238"/>
<path d="M326.81 253.78C326.49 253.83 325.79 250.31 325.84 245.95C325.9 241.61 326.07 238.13 326.37 238.11C326.71 238.08 327.07 241.63 327.01 245.95C326.96 250.26 327.13 253.73 326.81 253.78Z" fill="#263238"/>
<path d="M337.09 240.29C337.21 240.54 334.67 241.78 331.28 241.4C329.61 241.22 328.14 240.59 327.26 239.87C326.36 239.16 326.13 238.44 326.25 238.37C326.4 238.27 326.83 238.74 327.72 239.18C328.59 239.64 329.9 240.07 331.42 240.24C334.47 240.6 337 239.94 337.09 240.29Z" fill="#263238"/>
<path d="M337.43 257.18C336.54 258.82 334.49 259.43 332.85 258.54C331.21 257.65 330.6 255.6 331.49 253.96C332.38 252.32 334.43 251.71 336.07 252.6C337.71 253.49 338.32 255.54 337.43 257.18Z" fill="#263238"/>
<path d="M337.53 255.96C337.21 256.01 336.51 252.49 336.56 248.13C336.62 243.79 336.79 240.31 337.09 240.29C337.43 240.26 337.79 243.81 337.73 248.13C337.68 252.44 337.85 255.91 337.53 255.96Z" fill="#263238"/>
<path d="M337.17 242.59C337.33 242.85 334.99 244.2 331.79 243.95C328.59 243.73 326.47 242.06 326.66 241.83C326.83 241.53 329 242.6 331.87 242.78C334.74 243.01 337.04 242.27 337.16 242.59H337.17Z" fill="#263238"/>
<path d="M348.49 157.25C347.32 159.13 344.85 159.71 342.97 158.54C341.09 157.37 340.51 154.9 341.68 153.02C342.85 151.14 345.32 150.56 347.2 151.73C349.08 152.9 349.66 155.37 348.49 157.25Z" fill="#263238"/>
<path d="M348.7 155.81C348.32 155.85 347.74 151.63 348.1 146.47C348.48 141.33 348.92 137.22 349.28 137.22C349.69 137.22 349.86 141.44 349.49 146.56C349.13 151.66 349.08 155.79 348.7 155.82V155.81Z" fill="#263238"/>
<path d="M361.83 140.55C361.95 140.85 358.86 142.15 354.87 141.45C352.9 141.12 351.2 140.27 350.22 139.35C349.21 138.45 348.98 137.57 349.13 137.5C349.32 137.39 349.79 137.98 350.81 138.56C351.81 139.16 353.33 139.77 355.11 140.07C358.69 140.71 361.74 140.1 361.83 140.53V140.55Z" fill="#263238"/>
<path d="M361.03 160.59C359.86 162.47 357.39 163.05 355.51 161.88C353.63 160.71 353.05 158.24 354.22 156.36C355.39 154.48 357.86 153.9 359.74 155.07C361.62 156.24 362.2 158.71 361.03 160.59Z" fill="#263238"/>
<path d="M361.24 159.15C360.86 159.19 360.28 154.97 360.64 149.81C361.02 144.67 361.46 140.56 361.82 140.56C362.23 140.56 362.4 144.78 362.03 149.9C361.67 155 361.62 159.13 361.24 159.16V159.15Z" fill="#263238"/>
<path d="M361.77 143.29C361.94 143.61 359.07 145.04 355.3 144.52C351.53 144.04 349.13 141.91 349.38 141.64C349.6 141.3 352.09 142.72 355.48 143.14C358.86 143.62 361.64 142.9 361.76 143.29H361.77Z" fill="#263238"/>
<path d="M172.88 99.5C171.71 101.38 169.24 101.96 167.36 100.79C165.48 99.62 164.9 97.15 166.07 95.27C167.24 93.39 169.71 92.81 171.59 93.98C173.47 95.15 174.05 97.62 172.88 99.5Z" fill="#263238"/>
<path d="M173.09 98.06C172.71 98.1 172.13 93.88 172.49 88.72C172.87 83.58 173.31 79.47 173.67 79.47C174.08 79.47 174.25 83.69 173.88 88.81C173.52 93.91 173.47 98.04 173.09 98.07V98.06Z" fill="#263238"/>
<path d="M186.22 82.8C186.34 83.1 183.25 84.4 179.26 83.7C177.29 83.37 175.59 82.52 174.61 81.6C173.6 80.7 173.37 79.82 173.52 79.75C173.71 79.64 174.18 80.23 175.2 80.81C176.2 81.41 177.72 82.02 179.5 82.32C183.08 82.96 186.13 82.35 186.22 82.79V82.8Z" fill="#263238"/>
<path d="M185.43 102.84C184.26 104.72 181.79 105.3 179.91 104.13C178.03 102.96 177.45 100.49 178.62 98.61C179.79 96.73 182.26 96.15 184.14 97.32C186.02 98.49 186.6 100.96 185.43 102.84Z" fill="#263238"/>
<path d="M185.64 101.4C185.26 101.44 184.68 97.22 185.04 92.06C185.42 86.92 185.86 82.81 186.22 82.81C186.63 82.81 186.8 87.03 186.43 92.15C186.07 97.25 186.02 101.38 185.64 101.41V101.4Z" fill="#263238"/>
<path d="M186.16 85.54C186.33 85.86 183.46 87.29 179.69 86.77C175.92 86.29 173.52 84.16 173.77 83.89C173.99 83.55 176.48 84.97 179.87 85.39C183.25 85.87 186.03 85.15 186.15 85.54H186.16Z" fill="#263238"/>
<path d="M220.29 38.69C219.32 40.25 217.26 40.74 215.7 39.76C214.14 38.79 213.66 36.73 214.63 35.17C215.6 33.61 217.66 33.13 219.22 34.1C220.78 35.07 221.26 37.13 220.29 38.69Z" fill="#263238"/>
<path d="M220.47 37.49C220.15 37.52 219.67 34.01 219.97 29.71C220.28 25.43 220.65 22.02 220.95 22.01C221.29 22.01 221.43 25.52 221.12 29.78C220.82 34.02 220.78 37.46 220.46 37.49H220.47Z" fill="#263238"/>
<path d="M231.4 24.79C231.5 25.04 228.93 26.12 225.61 25.54C223.97 25.26 222.56 24.55 221.74 23.8C220.9 23.05 220.71 22.32 220.83 22.26C220.98 22.17 221.38 22.66 222.23 23.14C223.06 23.64 224.32 24.15 225.81 24.4C228.79 24.93 231.33 24.43 231.4 24.79Z" fill="#263238"/>
<path d="M230.73 41.46C229.76 43.02 227.7 43.5 226.14 42.53C224.58 41.56 224.09 39.5 225.07 37.94C226.04 36.38 228.1 35.89 229.66 36.87C231.22 37.84 231.71 39.9 230.73 41.46Z" fill="#263238"/>
<path d="M230.91 40.27C230.59 40.3 230.11 36.79 230.41 32.49C230.72 28.21 231.09 24.79 231.39 24.79C231.73 24.79 231.87 28.3 231.56 32.56C231.26 36.8 231.22 40.24 230.9 40.27H230.91Z" fill="#263238"/>
<path d="M231.34 27.07C231.48 27.34 229.1 28.53 225.96 28.1C222.82 27.7 220.83 25.93 221.03 25.71C221.22 25.43 223.29 26.61 226.11 26.96C228.93 27.36 231.23 26.76 231.34 27.08V27.07Z" fill="#263238"/>
<path d="M233.56 102.95C233.56 102.95 208.96 87.97 226.33 72.63C243.71 57.3 288.97 71.54 296.31 75.31C303.65 79.07 306.41 91.41 296.86 98.42C285.06 107.08 280.41 105.51 279.77 105.63C279.13 105.74 233.56 102.95 233.56 102.95Z" fill="#263238"/>
<path d="M285.64 63.57C285.26 61.46 284.86 59.3 283.72 57.49C282.74 55.94 281.26 54.75 279.63 53.9C274.05 50.96 267.28 51.93 261.13 53.32C257.17 54.22 253.14 55.32 249.86 57.72C245.05 61.24 242.53 67.01 240.23 72.51L288.52 79.65C287.56 74.29 286.6 68.94 285.64 63.58V63.57Z" fill="#263238"/>
<path d="M244.11 64.35C244.11 64.35 251.85 62.98 266.22 64.35C280.58 65.72 286.7 69.49 286.7 69.49L287.28 71.72C287.28 71.72 273.16 67.61 265.28 66.72C257.26 65.81 243.3 65.81 243.3 65.81L244.12 64.35H244.11Z" fill="black"/>
<path d="M269.8 57.12C269.84 57.19 269 57.73 267.54 58.41C266.08 59.09 264 59.89 261.61 60.48C259.22 61.07 257.01 61.34 255.4 61.42C253.79 61.5 252.8 61.42 252.8 61.34C252.8 61.13 256.75 61.02 261.45 59.83C266.16 58.68 269.71 56.92 269.8 57.11V57.12Z" fill="#455A64"/>
<path d="M276.38 124.23C278.4 118.43 281.6 106.14 284.36 94.99C287.33 82.99 279.3 77.29 267.59 73.36L266.43 72.97C253.63 69.5 246.12 72.84 243.01 85.73L228.88 127.38L246.04 155.82L253.29 148.82L259.88 134.14C259.88 134.14 272.19 136.26 276.39 124.24L276.38 124.23Z" fill="#AE7461"/>
<path d="M259.87 134.13C259.87 134.13 251.67 132.14 245.27 124.33C245.27 124.33 246.17 134.05 258.58 137L259.87 134.13Z" fill="#6F4439"/>
<path d="M277.09 106.11C276.82 107.03 275.81 107.56 274.85 107.29C273.89 107.02 273.32 106.06 273.59 105.14C273.86 104.22 274.87 103.69 275.83 103.96C276.8 104.23 277.36 105.19 277.09 106.11Z" fill="#263238"/>
<path d="M279.79 100.02C279.5 100.17 278.52 98.77 276.66 98.15C274.82 97.51 273.14 98.01 273.01 97.71C272.94 97.58 273.3 97.24 274.04 97.01C274.77 96.78 275.9 96.69 277.06 97.08C278.21 97.47 279.04 98.22 279.45 98.85C279.87 99.48 279.93 99.95 279.79 100.02Z" fill="#263238"/>
<path d="M260.37 99.47C260.1 100.39 259.09 100.92 258.13 100.65C257.17 100.38 256.6 99.42 256.87 98.5C257.14 97.58 258.15 97.05 259.11 97.32C260.08 97.59 260.64 98.55 260.37 99.47Z" fill="#263238"/>
<path d="M261.45 94.26C261.16 94.41 260.18 93.01 258.32 92.39C256.48 91.75 254.8 92.25 254.67 91.95C254.61 91.82 254.96 91.48 255.7 91.25C256.43 91.02 257.56 90.93 258.71 91.32C259.86 91.71 260.69 92.46 261.1 93.09C261.52 93.72 261.58 94.19 261.44 94.25L261.45 94.26Z" fill="#263238"/>
<path d="M263.57 110.26C263.6 110.15 264.82 110.34 266.76 110.73C267.25 110.84 267.73 110.9 267.92 110.6C268.15 110.3 268.12 109.72 268.07 109.09C268.01 107.8 267.95 106.44 267.88 105.02C267.66 99.24 267.66 94.54 267.9 94.54C268.13 94.54 268.5 99.22 268.73 105C268.77 106.42 268.82 107.78 268.86 109.08C268.86 109.68 268.96 110.39 268.48 111.02C268.23 111.33 267.8 111.47 267.47 111.45C267.14 111.45 266.87 111.36 266.63 111.29C264.72 110.76 263.55 110.38 263.58 110.27L263.57 110.26Z" fill="#263238"/>
<path d="M264.23 88.68C263.88 89.12 262.11 88.26 259.84 87.8C257.59 87.29 255.62 87.34 255.48 86.79C255.42 86.53 255.89 86.16 256.76 85.91C257.63 85.66 258.9 85.57 260.26 85.86C261.61 86.16 262.74 86.76 263.42 87.35C264.11 87.94 264.38 88.47 264.22 88.68H264.23Z" fill="#263238"/>
<path d="M282.08 93.49C281.55 93.78 280.19 92.84 278.38 92.21C276.59 91.53 274.93 91.37 274.73 90.81C274.65 90.54 275.03 90.2 275.83 90.03C276.62 89.85 277.84 89.9 279.08 90.35C280.32 90.8 281.27 91.54 281.75 92.19C282.25 92.84 282.31 93.34 282.07 93.49H282.08Z" fill="#263238"/>
<path d="M240.67 94.27C240.49 94.11 232.22 88.79 229.72 97.12C227.22 105.46 236.11 106.25 236.19 106.01C236.28 105.78 240.67 94.26 240.67 94.26V94.27Z" fill="#AE7461"/>
<path d="M234.6 102.1C234.6 102.1 234.42 102.16 234.14 102.2C233.87 102.24 233.43 102.19 233.05 101.9C232.27 101.31 231.94 99.69 232.35 98.18C232.56 97.41 232.93 96.74 233.38 96.22C233.82 95.69 234.34 95.38 234.81 95.43C235.28 95.46 235.52 95.82 235.55 96.09C235.59 96.36 235.49 96.51 235.53 96.53C235.55 96.56 235.75 96.44 235.79 96.08C235.81 95.9 235.77 95.68 235.62 95.46C235.47 95.24 235.2 95.07 234.88 95.01C234.22 94.86 233.47 95.28 232.98 95.85C232.45 96.41 232.01 97.16 231.78 98.02C231.33 99.72 231.72 101.55 232.82 102.26C233.36 102.59 233.9 102.56 234.21 102.44C234.53 102.31 234.63 102.14 234.61 102.11L234.6 102.1Z" fill="#6F4439"/>
<path d="M294 84.82C293.13 84.58 292.23 84.47 291.32 84.48C291.9 84.03 292.49 83.58 292.9 82.97C293.31 82.37 293.53 81.58 293.28 80.89C292.96 80.01 292 79.54 291.08 79.37C289.8 79.13 288.49 79.3 287.19 79.24C286.19 79.2 285.49 78.77 284.56 78.28L284.53 78.25C284.53 78.25 276.61 74.04 259.74 70.97C246.72 68.6 242.56 79.08 242.56 79.08L237.47 90.42C237.17 92.48 238.63 94.11 239.51 95.99C240.06 97.16 241.58 97.37 242.81 96.94C243.53 96.69 244 96 244.41 95.36C248.13 89.53 251.99 83.21 251.71 76.3C252.16 76.18 258.36 77.34 258.61 77.34L281.71 83.28C283.87 86.85 280.51 90.91 283.52 91.32C284.67 91.69 285.85 91.97 287.06 92.05C289.1 92.2 291.23 91.78 292.87 90.57C294.1 89.66 295 88.26 295.24 86.77C295.38 85.9 294.84 85.05 293.99 84.82H294Z" fill="#263238"/>
<path d="M289.11 72.52C289.11 72.52 288.41 72.36 287.19 71.96C285.97 71.55 284.2 71 281.99 70.37C277.58 69.1 271.4 67.66 264.46 66.81C257.51 65.97 251.16 65.89 246.58 66.07C244.29 66.15 242.43 66.26 241.15 66.37C239.87 66.46 239.16 66.49 239.15 66.45C239.15 66.4 239.85 66.29 241.12 66.11C242.39 65.93 244.25 65.75 246.55 65.6C251.15 65.3 257.54 65.31 264.53 66.15C271.52 67.01 277.73 68.53 282.12 69.92C284.32 70.61 286.08 71.23 287.27 71.72C288.47 72.19 289.12 72.48 289.1 72.52H289.11Z" fill="#455A64"/>
<path opacity="0.3" d="M265.94 98.7C264.48 102.53 259.41 105.71 255.25 104.13C251.09 102.55 249.29 97.31 250.75 93.48C252.21 89.65 256.36 88.69 260.53 90.27C264.69 91.85 267.4 94.88 265.95 98.71L265.94 98.7Z" fill="black"/>
<path opacity="0.3" d="M284.64 105.02C283.44 108.94 278.59 112.45 274.33 111.14C270.07 109.84 267.93 104.72 269.13 100.81C270.33 96.89 274.42 95.66 278.67 96.96C282.93 98.26 285.83 101.1 284.63 105.02H284.64Z" fill="black"/>
<path d="M270.29 98.84C270.17 98.93 269.53 97.99 268.32 97.57C267.11 97.14 266.03 97.47 265.99 97.33C265.97 97.27 266.21 97.09 266.66 96.98C267.11 96.86 267.8 96.84 268.49 97.08C269.18 97.32 269.7 97.77 269.98 98.14C270.27 98.52 270.34 98.8 270.29 98.84Z" fill="#263238"/>
<path d="M251.14 92.79C251.14 92.93 248.25 93.25 244.67 93.5C241.09 93.75 238.18 93.84 238.17 93.69C238.17 93.55 241.05 93.23 244.64 92.98C248.22 92.73 251.13 92.64 251.14 92.79Z" fill="#263238"/>
<g opacity="0.3">
<path d="M299.4 83.5C298.88 83.09 298.19 82.95 297.53 83.01C296.87 83.07 296.24 83.31 295.64 83.57C291.86 85.22 287.53 87.55 284.76 90.62V93.1C286.55 94.16 288.84 94.35 290.77 93.57C292.7 92.8 294.24 91.09 294.8 89.09C295.82 88.94 296.85 88.78 297.8 88.37C298.75 87.96 299.61 87.26 300 86.31C300.39 85.36 300.2 84.13 299.4 83.49V83.5Z" fill="black"/>
</g>
<path d="M260.44 76.13C260.67 78.31 262.66 81.15 264.46 82.14C266.26 83.13 268.52 83.07 270.28 81.98C269.94 84.09 271.72 86.07 273.66 86.44C275.6 86.81 277.57 85.97 279.28 84.91C279.01 86.69 279.82 88.52 281.08 89.7C282.34 90.87 283.99 91.45 285.64 91.66C287.26 91.87 288.99 91.72 290.38 90.79C291.77 89.85 292.69 87.97 292.25 86.27C294.03 87.6 296.7 87.02 298.05 85.18C299.4 83.35 299.42 80.59 298.3 78.58C297.18 76.57 295.08 75.34 292.93 75.13C290.78 74.92 288.61 75.67 286.79 76.93C286.29 74.97 284.54 73.47 282.67 73.4C280.8 73.33 278.95 74.7 278.33 76.62" fill="#263238"/>
<path d="M278.32 76.61C278.32 76.61 278.36 76.33 278.59 75.85C278.82 75.38 279.25 74.69 280.08 74.09C280.88 73.5 282.19 72.99 283.64 73.41C285.05 73.8 286.46 75.06 286.95 76.88L286.67 76.78C288.07 75.8 289.87 74.97 291.93 74.89C293.97 74.79 296.25 75.62 297.77 77.42C299.3 79.19 299.83 81.95 298.81 84.33C298.31 85.51 297.29 86.54 296.01 86.97C294.76 87.44 293.22 87.33 292.07 86.47L292.48 86.2C292.83 87.53 292.39 89.03 291.48 90.11C290.48 91.34 288.92 91.89 287.46 91.98C285.99 92.06 284.54 91.83 283.21 91.32C281.89 90.81 280.7 89.92 279.95 88.75C279.2 87.6 278.83 86.2 279.03 84.88L279.39 85.12C278.42 85.72 277.4 86.22 276.33 86.52C275.27 86.81 274.14 86.86 273.12 86.54C271.1 85.87 269.76 83.83 270.07 81.96L270.36 82.15C268.49 83.29 266.32 83.2 264.79 82.49C264.01 82.13 263.39 81.61 262.9 81.09C262.4 80.57 262.01 80.04 261.69 79.54C261.05 78.55 260.72 77.67 260.57 77.08C260.42 76.48 260.43 76.15 260.43 76.15C260.46 76.15 260.49 76.47 260.67 77.05C260.86 77.63 261.21 78.47 261.87 79.43C262.53 80.35 263.44 81.55 264.92 82.22C266.38 82.87 268.44 82.93 270.17 81.84L270.53 81.61L270.46 82.03C270.19 83.68 271.43 85.55 273.26 86.14C274.17 86.43 275.22 86.38 276.22 86.1C277.22 85.82 278.2 85.33 279.15 84.74L279.59 84.47L279.52 84.98C279.35 86.17 279.68 87.45 280.38 88.51C281.07 89.58 282.16 90.39 283.41 90.88C284.66 91.36 286.06 91.58 287.44 91.5C288.81 91.41 290.21 90.9 291.09 89.81C291.91 88.83 292.29 87.49 291.99 86.36L291.8 85.64L292.4 86.09C293.38 86.83 294.73 86.94 295.85 86.52C297 86.13 297.9 85.23 298.36 84.16C299.3 81.99 298.83 79.4 297.42 77.76C296.02 76.08 293.88 75.27 291.95 75.35C289.99 75.41 288.25 76.18 286.88 77.11L286.67 77.25L286.61 77C286.18 75.31 284.87 74.1 283.56 73.72C282.23 73.3 280.98 73.75 280.19 74.29C279.38 74.84 278.93 75.49 278.67 75.93C278.42 76.38 278.34 76.65 278.31 76.64L278.32 76.61Z" fill="#455A64"/>
<path d="M275.17 74.46C275.11 74.46 275.52 73.8 275.07 72.69C274.85 72.15 274.4 71.57 273.69 71.13C272.98 70.68 272.06 70.38 271.01 70.11C268.92 69.55 266.35 69.1 263.43 69.1C261.97 69.1 260.44 69.21 258.85 69.45C257.28 69.71 255.6 70.03 254.18 70.94L254.04 71.03L253.9 70.93C252.27 69.8 249.98 69.47 247.98 70.22C245.68 71.1 244.12 73.37 243.94 75.62L243.92 75.84H243.7C240.73 76.02 238.22 78.01 237.26 80.34C236.27 82.69 236.62 85.18 237.54 86.88L237.59 86.97L237.53 87.06C237.24 87.52 237.19 88.13 237.18 88.67C237.17 89.22 237.24 89.73 237.3 90.21C237.45 91.17 237.66 91.97 237.87 92.62C238.08 93.26 238.28 93.75 238.45 94.06C238.61 94.38 238.72 94.52 238.71 94.54C238.71 94.54 238.56 94.42 238.37 94.11C238.17 93.81 237.94 93.33 237.7 92.68C237.46 92.04 237.22 91.22 237.04 90.25C236.96 89.76 236.88 89.24 236.88 88.67C236.88 88.11 236.89 87.47 237.26 86.86V87.04C236.25 85.27 235.84 82.67 236.87 80.16C237.87 77.67 240.5 75.54 243.69 75.34L243.45 75.57C243.64 73.13 245.3 70.69 247.81 69.73C249.97 68.91 252.43 69.27 254.2 70.5H253.92C255.46 69.52 257.2 69.21 258.79 68.96C260.4 68.73 261.97 68.62 263.45 68.65C266.41 68.68 269.02 69.18 271.11 69.78C272.16 70.08 273.11 70.41 273.84 70.9C274.58 71.38 275.05 72.03 275.25 72.61C275.46 73.19 275.44 73.69 275.36 74C275.28 74.31 275.18 74.45 275.18 74.45L275.17 74.46Z" fill="#455A64"/>
<path d="M220.2 127.6C220.2 127.6 182.82 140.64 180.92 142.99C176.78 148.13 193.01 222.81 192.41 223.11C192 223.31 186.54 240.81 184.99 253.36C184.19 259.87 188.13 266.03 194.4 267.97L268.59 263.33C268.59 263.33 273.52 261.1 273.33 252.95C272.78 229.06 266.72 178.65 267.39 176.64C268.29 173.94 257.6 139.21 257.6 139.21L255.48 143.62L230.34 119.66L220.21 127.6H220.2Z" fill="#E0E0E0"/>
<path d="M248.82 153.79C248.82 153.66 255.15 145.41 255.15 145.41C255.15 145.41 258.29 154.93 257.91 154.93C257.53 154.93 256.06 158.11 256.06 158.11H250.73L248.83 153.79H248.82Z" fill="#455A64"/>
<path d="M250.93 199.81C250.62 198.95 248.44 169.32 248.82 166.57C249.21 163.81 250.72 158.11 250.72 158.11H256.05C256.05 158.11 260.22 185.17 261.94 192.41C263.66 199.65 267.28 234.61 266.59 241.67L258.84 254.24L251.78 236.15L250.92 199.81H250.93Z" fill="#455A64"/>
<path d="M259.11 146.68C260.31 147.41 267.78 150.14 270.96 156C274.14 161.86 274.92 177.18 276.05 182.09C277.17 187.01 277.91 204.17 277.91 204.17C277.91 204.17 290.77 219.04 291.22 220.74C291.67 222.44 294.72 233.6 291.58 235.87C288.44 238.14 282.51 241.37 276.9 240.62C271.29 239.86 266.84 233.75 266.84 233.75L261.8 164.13L259.11 146.68Z" fill="#E0E0E0"/>
<path d="M267.49 162.77C267.49 162.77 267.52 163.02 267.52 163.5C267.52 164.03 267.5 164.72 267.49 165.58C267.47 166.48 267.44 167.58 267.46 168.86C267.47 170.14 267.44 171.6 267.5 173.21C267.55 176.43 267.73 180.27 268.02 184.52C268.33 188.77 268.76 193.44 269.29 198.33C270.38 208.11 271.51 216.96 272.16 223.38C272.49 226.59 272.73 229.19 272.85 230.99C272.91 231.85 272.95 232.54 272.99 233.06C273.02 233.53 273.02 233.78 273 233.79C272.98 233.79 272.94 233.54 272.88 233.07C272.82 232.55 272.74 231.86 272.64 231.01C272.43 229.16 272.14 226.58 271.78 223.42C271.04 217.01 269.85 208.18 268.76 198.39C268.23 193.49 267.81 188.82 267.53 184.56C267.27 180.3 267.13 176.45 267.12 173.22C267.09 171.61 267.14 170.14 267.16 168.86C267.17 167.58 267.23 166.47 267.28 165.57C267.33 164.71 267.37 164.02 267.4 163.49C267.43 163.02 267.46 162.77 267.48 162.77H267.49Z" fill="#263238"/>
<path d="M260.07 147.24C260.07 147.24 260.11 147.38 260.14 147.64C260.17 147.95 260.22 148.34 260.27 148.82C260.34 149.86 260.46 151.38 260.27 153.32C260.21 153.8 260.14 154.31 259.99 154.83C259.85 155.35 259.66 155.9 259.29 156.4C259.19 156.52 259.08 156.64 258.94 156.74C258.87 156.79 258.79 156.84 258.7 156.87C258.68 156.87 258.64 156.88 258.61 156.89C258.6 156.89 258.52 156.9 258.43 156.83C258.33 156.72 258.37 156.73 258.33 156.67C258.2 156.37 258.1 156.09 258 155.79C257.81 155.2 257.61 154.58 257.41 153.95C256.63 151.41 255.8 148.56 254.93 145.45L255.36 145.52C254.09 147.43 252.74 149.48 251.08 151.43C249.42 153.38 247.38 155.16 245.03 156.56L244.88 156.65L244.75 156.55L244.69 156.51C240.48 153.52 237.05 149.97 234.2 146.57C231.34 143.16 229.06 139.86 227.25 137.04C225.41 134.24 223.78 132.08 222.64 130.59C222.09 129.88 221.65 129.31 221.32 128.88C221.02 128.49 220.86 128.28 220.88 128.27C220.89 128.26 221.08 128.44 221.4 128.81C221.73 129.18 222.2 129.73 222.8 130.46C223.99 131.91 225.67 134.05 227.56 136.83C229.42 139.62 231.71 142.88 234.57 146.25C237.43 149.61 240.84 153.13 244.99 156.07L245.05 156.11H244.77C247.08 154.73 249.06 152.99 250.7 151.08C252.34 149.17 253.69 147.15 254.97 145.24L255.26 144.81L255.4 145.31C256.26 148.41 257.06 151.28 257.81 153.82C258 154.45 258.19 155.06 258.37 155.66C258.46 155.95 258.56 156.25 258.67 156.5C258.67 156.5 258.73 156.59 258.67 156.54C258.63 156.53 258.57 156.61 258.58 156.66C258.58 156.77 258.58 156.57 258.58 156.57V156.54V156.52C258.58 156.52 258.58 156.52 258.6 156.52C258.65 156.5 258.7 156.48 258.75 156.44C258.85 156.37 258.94 156.28 259.03 156.17C259.67 155.3 259.85 154.2 259.99 153.27C260.22 151.38 260.15 149.85 260.13 148.82C260.11 148.34 260.09 147.95 260.08 147.63C260.08 147.36 260.08 147.22 260.08 147.22L260.07 147.24Z" fill="#263238"/>
<path opacity="0.3" d="M190.48 212.16C190.39 211.7 200.05 175.42 199.62 175.75C199.18 176.08 187.55 196.83 187.55 196.83L190.61 212.83" fill="black"/>
<path d="M256.13 157.61C256.21 157.72 255.09 158.48 253.47 158.65C251.86 158.83 250.6 158.34 250.65 158.21C250.69 158.06 251.91 158.3 253.41 158.13C254.91 157.98 256.06 157.47 256.12 157.61H256.13Z" fill="#263238"/>
<path d="M225.59 324.19C225.59 324.19 189.61 320.79 186.57 314.53V312.03C200.53 309.63 213.6 309.47 225.59 312.03V324.2V324.19Z" fill="#455A64"/>
<path d="M225.59 324.19C225.59 324.19 259.62 323.27 264.61 314.53V312.03H225.59V324.2V324.19Z" fill="#455A64"/>
<path d="M249.18 332.41L297.06 480.44H289.5L240.79 332.41H249.18Z" fill="#455A64"/>
<path d="M232.04 318.11H223.68V392.33H232.04V318.11Z" fill="#455A64"/>
<path d="M204.21 332.41L156.34 480.44H163.9L212.61 332.41H204.21Z" fill="#455A64"/>
<path d="M231.89 332.41H223.83V480.44H231.89V332.41Z" fill="#455A64"/>
<path d="M249.21 332.41H204.21V338.29H249.21V332.41Z" fill="#455A64"/>
<path d="M252.27 353.38H201.22V359.26H252.27V353.38Z" fill="#455A64"/>
<path d="M277.02 439.22H170.73L174.65 432.63H277.02V439.22Z" fill="#455A64"/>
<path d="M237.59 318.69C237.59 318.69 237.41 318.72 237.07 318.74C236.67 318.75 236.18 318.76 235.58 318.78C234.29 318.81 232.41 318.8 230.1 318.74C225.47 318.63 219.08 318.24 212.08 317.33C205.07 316.41 198.79 315.16 194.29 314.08C192.04 313.54 190.23 313.07 188.98 312.71L187.55 312.29C187.22 312.19 187.06 312.13 187.06 312.11C187.06 312.09 187.24 312.12 187.58 312.19C187.97 312.28 188.45 312.39 189.03 312.52C190.29 312.82 192.11 313.24 194.37 313.72C198.88 314.7 205.15 315.9 212.14 316.81C219.13 317.72 225.49 318.16 230.11 318.37C232.42 318.47 234.29 318.54 235.58 318.57L237.07 318.63C237.41 318.65 237.59 318.67 237.59 318.69Z" fill="#263238"/>
<path d="M241.05 323.07C241.05 323.07 240.66 323.2 239.93 323.33C239.2 323.47 238.14 323.63 236.83 323.78C234.2 324.1 230.54 324.35 226.49 324.28C222.44 324.2 218.79 323.8 216.17 323.38C214.86 323.17 213.81 322.97 213.09 322.81C212.37 322.65 211.97 322.54 211.98 322.51C211.98 322.47 212.4 322.51 213.13 322.61C213.97 322.72 215.01 322.86 216.23 323.02C218.85 323.35 222.48 323.68 226.5 323.76C230.52 323.84 234.16 323.64 236.79 323.42C238.02 323.31 239.06 323.21 239.9 323.13C240.64 323.06 241.05 323.04 241.05 323.07Z" fill="#263238"/>
<path d="M235.67 338.43C235.67 338.57 232.17 338.69 227.86 338.69C223.55 338.69 220.05 338.57 220.05 338.43C220.05 338.29 223.55 338.17 227.86 338.17C232.17 338.17 235.67 338.29 235.67 338.43Z" fill="#263238"/>
<path d="M235.67 353.38C235.67 353.52 232.17 353.64 227.86 353.64C223.55 353.64 220.05 353.52 220.05 353.38C220.05 353.24 223.55 353.12 227.86 353.12C232.17 353.12 235.67 353.24 235.67 353.38Z" fill="#263238"/>
<path d="M245.03 332.61C245.03 332.75 238.62 332.87 230.72 332.87C222.82 332.87 216.41 332.75 216.41 332.61C216.41 332.47 222.81 332.35 230.72 332.35C238.63 332.35 245.03 332.47 245.03 332.61Z" fill="#263238"/>
<path d="M245.03 359.06C245.03 359.2 238.62 359.32 230.72 359.32C222.82 359.32 216.41 359.2 216.41 359.06C216.41 358.92 222.81 358.8 230.72 358.8C238.63 358.8 245.03 358.92 245.03 359.06Z" fill="#263238"/>
<path d="M350.28 317.18C344.38 308.15 273.17 263.08 273.17 263.08L255.62 262.14L252.08 317.23L319.32 357.05L306.31 446.99L341.08 451.97C341.08 451.97 350.89 375.82 352.18 364.24C352.97 357.13 357.3 327.93 350.28 317.2V317.18Z" fill="#263238"/>
<path opacity="0.3" d="M335.16 323.61C328.02 314.23 280.93 278.25 280.93 278.25L322.74 354.43L316.29 377.98L312.84 401.83C312.84 401.83 330.19 381.4 336.46 369.62C342.4 358.45 349.05 341.84 335.16 323.61Z" fill="black"/>
<path d="M337.62 337.35C334.74 326.49 325.37 316.83 317.42 310.17C309.48 303.51 264.43 267 264.43 267L254.77 251.78L196.85 257.38C196.85 257.38 190.21 288.28 198.75 302.3C204.79 312.22 233.51 315.37 238.73 317.8C243.95 320.22 297.05 346.37 297.05 346.37L242.57 395.83L266.32 419.24C266.32 419.24 278.7 410.51 294.15 397.49C312.29 382.2 317.53 377.03 328.96 365.49C336.67 357.7 339.67 345.12 337.62 337.38V337.35Z" fill="#263238"/>
<path d="M313.27 356.26C313.21 356.39 309.94 354.92 305.96 352.99C301.99 351.05 298.82 349.38 298.88 349.25C298.94 349.12 302.21 350.59 306.19 352.52C310.16 354.46 313.33 356.13 313.27 356.26Z" fill="#455A64"/>
<path d="M317.22 341.85C317.25 341.99 313.78 342.88 309.47 343.84C305.16 344.8 301.63 345.47 301.6 345.33C301.57 345.19 305.04 344.3 309.35 343.34C313.66 342.38 317.19 341.71 317.22 341.85Z" fill="#455A64"/>
<path d="M316.5 353.47C316.5 353.47 316.04 353.41 315.25 353.21C314.45 353.01 313.31 352.7 311.89 352.3C309.07 351.48 305.17 350.3 301.07 348.45C300.67 348.26 300.28 348.08 299.91 347.91L298.96 347.46L300.01 347.41C304.21 347.22 307.97 347.54 310.63 347.96C311.96 348.17 313.03 348.39 313.75 348.56C314.48 348.74 314.87 348.86 314.86 348.89C314.86 348.93 314.45 348.87 313.71 348.75C312.97 348.63 311.91 348.47 310.58 348.31C307.92 347.98 304.2 347.72 300.03 347.92L300.13 347.43C300.5 347.6 300.89 347.78 301.28 347.97C305.34 349.81 309.21 351.04 311.99 351.95C313.31 352.38 314.42 352.73 315.3 353.02C316.08 353.28 316.5 353.44 316.49 353.47H316.5Z" fill="#455A64"/>
<path d="M180.92 142.99C180.92 142.99 141.25 208.39 143.05 220.38C144.85 232.38 196.9 268.69 197.2 267.79C197.5 266.89 210.1 245.5 210.1 245.5L176.03 216.18L176.93 213.78C176.93 213.78 200.09 174.1 203.39 171.7C206.69 169.3 219.82 146.9 207.22 140.31C194.62 133.72 180.91 142.99 180.91 142.99H180.92Z" fill="#E0E0E0"/>
<path d="M158.26 219.14C158.26 219.07 159.21 218.88 160.77 218.68C162.33 218.49 164.5 218.31 166.9 218.26C169.3 218.22 171.48 218.32 173.05 218.46C174.62 218.6 175.58 218.76 175.57 218.83C175.57 218.91 174.59 218.88 173.03 218.83C171.46 218.79 169.3 218.74 166.91 218.79C164.52 218.83 162.36 218.95 160.8 219.05C159.24 219.15 158.27 219.21 158.26 219.14Z" fill="#263238"/>
<path d="M171.35 215.68C171.35 215.68 171.22 215.73 170.96 215.77C170.7 215.81 170.32 215.88 169.82 215.94C168.83 216.07 167.38 216.2 165.57 216.25C161.96 216.36 156.88 216.04 151.4 214.59L150.69 214.4L151.36 214.1C151.98 213.82 152.66 213.58 153.36 213.39C154.86 212.98 156.37 212.82 157.82 212.72C159.27 212.63 160.66 212.59 161.99 212.58C164.65 212.57 167.04 212.72 169.04 212.91C171.04 213.11 172.64 213.36 173.75 213.56C174.3 213.66 174.73 213.75 175.02 213.81C175.31 213.88 175.46 213.92 175.45 213.94C175.45 213.98 174.83 213.9 173.72 213.76C172.61 213.62 171 213.43 169.01 213.28C167.02 213.13 164.64 213.02 162 213.06C159.37 213.14 156.42 213.14 153.51 213.89C152.83 214.07 152.18 214.3 151.59 214.57L151.55 214.08C156.97 215.52 162 215.9 165.58 215.89C167.38 215.89 168.82 215.81 169.82 215.74C170.82 215.67 171.36 215.63 171.37 215.67L171.35 215.68Z" fill="#263238"/>
<path d="M165.06 205.94C165.13 205.81 167.65 207.07 170.68 208.75C173.71 210.43 176.12 211.89 176.05 212.01C175.98 212.14 173.46 210.88 170.43 209.2C167.4 207.52 164.99 206.06 165.06 205.94Z" fill="#263238"/>
<path d="M175.61 252.74C175.61 252.74 175.75 252.81 176.01 252.98C176.29 253.17 176.67 253.42 177.16 253.74C178.18 254.44 179.65 255.44 181.51 256.71C185.29 259.32 190.69 263.04 197.28 267.6L196.99 267.66C200.75 261.27 205.23 253.65 210.11 245.34L210.16 245.66C206.17 242.26 201.93 238.64 197.56 234.91C189.8 228.27 182.44 221.97 175.88 216.36L175.74 216.24L175.83 216.07C178.62 210.81 181.46 206.12 183.95 201.92C186.47 197.74 188.67 194.08 190.51 191.04C192.34 188.01 193.77 185.6 194.72 183.95C195.18 183.14 195.54 182.51 195.8 182.05L196.08 181.56C196.14 181.45 196.18 181.4 196.19 181.4C196.19 181.4 196.17 181.46 196.12 181.58L195.87 182.09C195.65 182.54 195.31 183.19 194.85 184.03C193.93 185.71 192.54 188.14 190.75 191.19C188.94 194.25 186.77 197.93 184.29 202.13C181.83 206.34 179.01 211.05 176.25 216.3L176.19 216.01C182.76 221.61 190.13 227.9 197.9 234.52C202.26 238.25 206.5 241.87 210.49 245.28L210.65 245.42L210.54 245.6C205.62 253.89 201.12 261.49 197.33 267.87L197.22 268.06L197.04 267.93C190.49 263.32 185.12 259.54 181.37 256.9C179.53 255.59 178.09 254.56 177.08 253.84C176.61 253.5 176.24 253.23 175.97 253.03C175.72 252.84 175.6 252.74 175.6 252.74H175.61Z" fill="#263238"/>
<path d="M202.13 163.05C202.02 163.01 202.81 161.42 203.1 158.65C203.41 155.92 203.03 151.91 200.81 148.29C198.58 144.68 195.17 142.52 192.59 141.57C189.98 140.58 188.21 140.57 188.23 140.46C188.23 140.43 188.67 140.42 189.46 140.49C190.25 140.56 191.38 140.77 192.72 141.23C195.38 142.11 198.94 144.28 201.26 148.02C203.56 151.77 203.89 155.92 203.47 158.7C203.27 160.11 202.95 161.21 202.66 161.95C202.37 162.69 202.16 163.07 202.14 163.06L202.13 163.05Z" fill="#263238"/>
<path d="M299.8 175.1L292.04 169.55L294.03 167.13C294.33 166.76 294.28 166.22 293.91 165.92C293.54 165.62 293 165.67 292.7 166.04L230.52 241.84C230.22 242.21 230.27 242.75 230.64 243.05C231.01 243.35 231.55 243.3 231.85 242.93L234.52 239.67C234.52 239.67 234.58 239.76 234.63 239.79L242.84 245.66C243.23 245.94 243.78 245.84 244.05 245.44C244.31 245.05 244.21 244.53 243.84 244.26L235.63 238.39C235.63 238.39 235.6 238.38 235.58 238.37L243.85 228.29L251.93 234.07C252.32 234.35 252.87 234.25 253.14 233.85C253.4 233.46 253.3 232.94 252.93 232.67L244.94 226.95L253 217.13L261.11 222.93C261.5 223.21 262.05 223.11 262.32 222.71C262.58 222.32 262.48 221.8 262.11 221.53L254.09 215.8L259.88 208.74L267.8 214.41C268.19 214.69 268.74 214.59 269.01 214.19C269.27 213.8 269.17 213.28 268.8 213.01L260.97 207.41L269.47 197.04C269.53 197.17 269.61 197.3 269.74 197.39L277.95 203.26C278.34 203.54 278.89 203.44 279.16 203.04C279.42 202.65 279.32 202.13 278.95 201.86L270.74 195.99C270.65 195.92 270.54 195.88 270.44 195.85L274.91 190.4L282.87 196.1C283.26 196.38 283.81 196.28 284.08 195.88C284.34 195.49 284.24 194.97 283.87 194.7L276 189.07L283.31 180.16C283.31 180.16 283.37 180.25 283.42 180.28L291.63 186.15C292.02 186.43 292.57 186.33 292.84 185.93C293.1 185.54 293 185.02 292.63 184.75L284.42 178.88C284.42 178.88 284.39 178.87 284.37 178.86L290.93 170.86L298.78 176.47C299.17 176.75 299.72 176.65 299.99 176.25C300.25 175.86 300.15 175.34 299.78 175.07L299.8 175.1Z" fill="black"/>
<path d="M279.05 264.87C256.92 273.23 241.07 306.74 221.37 302.25C217.16 301.29 213.53 298.55 211.35 294.82C208.41 289.78 206.06 280.93 214.5 269.68C228 251.7 299.5 164.83 299.5 164.83C299.5 164.83 302.18 162.53 300.85 159.05C299.89 156.55 283.94 138.42 283.94 138.42L286.61 135.31C286.61 135.31 304.67 154.47 306.53 159.05C308.9 164.89 304.42 171.08 304.42 171.08C300.29 177.09 252.8 241.47 249.82 246.33C247.38 250.31 234.04 269.51 229.32 276.28C228.37 277.64 228.83 279.54 230.34 280.3C231.58 280.93 233.11 280.46 233.89 279.31C238.19 272.97 250.77 258.16 260.12 250.02L269.95 240.9L271.71 234.16L283.88 268.54L279.06 264.87H279.05Z" fill="black"/>
<path d="M295.06 171.71C295.17 171.8 282.28 187.7 266.28 207.21C250.27 226.73 237.21 242.48 237.09 242.38C236.98 242.29 249.86 226.4 265.87 206.88C281.87 187.37 294.94 171.62 295.05 171.71H295.06Z" fill="#263238"/>
<path d="M303.9 178.37C302.53 180.18 300.62 181.07 299.12 179.83C297.62 178.59 299.96 175.38 299.96 175.38C299.96 175.38 302.43 172.27 304.03 173.38C305.63 174.49 305.27 176.57 303.9 178.37Z" fill="black"/>
<path d="M303.9 178.37C303.9 178.37 304.03 178.1 304.28 177.63C304.51 177.17 304.86 176.46 304.9 175.55C304.91 175.1 304.82 174.61 304.54 174.19C304.24 173.8 303.8 173.35 303.28 173.38C302.74 173.38 302.17 173.7 301.65 174.1C301.13 174.5 300.63 175 300.19 175.53C299.8 176.09 299.44 176.72 299.2 177.32C298.96 177.92 298.8 178.57 298.95 179.08C299.06 179.6 299.61 179.9 300.07 180.08C300.55 180.24 301.05 180.2 301.48 180.07C302.34 179.79 302.93 179.26 303.32 178.92C303.7 178.56 303.9 178.33 303.93 178.36C303.95 178.38 303.81 178.64 303.47 179.06C303.11 179.46 302.55 180.06 301.6 180.42C300.71 180.78 299.1 180.67 298.5 179.22C298.29 178.51 298.5 177.79 298.74 177.13C299 176.46 299.35 175.84 299.79 175.21C300.28 174.62 300.79 174.12 301.36 173.69C301.93 173.28 302.56 172.89 303.31 172.9C304.87 173.09 305.4 174.61 305.3 175.57C305.2 176.58 304.77 177.28 304.49 177.73C304.18 178.18 303.96 178.38 303.94 178.36L303.9 178.37Z" fill="#263238"/>
<path d="M296.85 187.32C295.48 189.13 293.57 190.02 292.07 188.78C290.57 187.54 292.91 184.33 292.91 184.33C292.91 184.33 295.38 181.22 296.98 182.33C298.58 183.44 298.22 185.52 296.85 187.32Z" fill="black"/>
<path d="M296.85 187.32C296.85 187.32 296.98 187.05 297.23 186.58C297.46 186.12 297.81 185.41 297.85 184.5C297.86 184.05 297.77 183.56 297.49 183.14C297.19 182.75 296.75 182.3 296.23 182.33C295.69 182.33 295.12 182.65 294.6 183.05C294.08 183.45 293.58 183.95 293.14 184.48C292.75 185.04 292.39 185.67 292.15 186.27C291.91 186.87 291.75 187.52 291.9 188.03C292.01 188.55 292.56 188.85 293.02 189.03C293.5 189.19 294 189.15 294.43 189.02C295.29 188.74 295.88 188.21 296.27 187.87C296.65 187.51 296.85 187.28 296.88 187.31C296.9 187.33 296.76 187.59 296.42 188.01C296.06 188.41 295.5 189.01 294.55 189.37C293.66 189.73 292.05 189.62 291.45 188.17C291.24 187.46 291.45 186.74 291.69 186.08C291.95 185.41 292.3 184.79 292.74 184.16C293.23 183.57 293.74 183.07 294.31 182.64C294.88 182.23 295.51 181.84 296.26 181.85C297.82 182.04 298.35 183.56 298.25 184.52C298.15 185.53 297.72 186.23 297.44 186.68C297.13 187.13 296.91 187.33 296.89 187.31L296.85 187.32Z" fill="#263238"/>
<path d="M289.11 198.44C287.74 200.25 285.83 201.14 284.33 199.9C282.83 198.66 285.17 195.45 285.17 195.45C285.17 195.45 287.64 192.34 289.24 193.45C290.84 194.56 290.48 196.64 289.11 198.44Z" fill="black"/>
<path d="M289.11 198.44C289.11 198.44 289.24 198.17 289.49 197.7C289.72 197.24 290.07 196.53 290.11 195.62C290.12 195.17 290.03 194.68 289.75 194.26C289.45 193.87 289.01 193.42 288.49 193.45C287.95 193.45 287.38 193.77 286.86 194.17C286.34 194.57 285.84 195.07 285.4 195.6C285.01 196.16 284.65 196.79 284.41 197.39C284.17 197.99 284.01 198.64 284.16 199.15C284.27 199.67 284.82 199.97 285.28 200.15C285.76 200.31 286.26 200.27 286.69 200.14C287.55 199.86 288.14 199.33 288.53 198.99C288.91 198.63 289.11 198.4 289.14 198.43C289.16 198.45 289.02 198.71 288.68 199.13C288.32 199.53 287.76 200.13 286.81 200.49C285.92 200.85 284.31 200.74 283.71 199.29C283.5 198.58 283.71 197.86 283.95 197.2C284.21 196.53 284.56 195.91 285 195.28C285.49 194.69 286 194.19 286.57 193.76C287.14 193.35 287.77 192.96 288.52 192.97C290.08 193.16 290.61 194.68 290.51 195.64C290.41 196.65 289.98 197.35 289.7 197.8C289.39 198.25 289.17 198.45 289.15 198.43L289.11 198.44Z" fill="#263238"/>
<path d="M275.24 217.39C273.87 219.2 271.96 220.09 270.46 218.85C268.96 217.61 271.3 214.4 271.3 214.4C271.3 214.4 273.77 211.29 275.37 212.4C276.97 213.51 276.61 215.59 275.24 217.39Z" fill="black"/>
<path d="M275.24 217.39C275.24 217.39 275.37 217.12 275.62 216.65C275.85 216.19 276.2 215.48 276.24 214.57C276.25 214.12 276.16 213.63 275.88 213.21C275.58 212.82 275.14 212.37 274.62 212.4C274.08 212.4 273.51 212.72 272.99 213.12C272.47 213.52 271.97 214.02 271.53 214.55C271.14 215.11 270.78 215.74 270.54 216.34C270.3 216.94 270.14 217.59 270.29 218.1C270.4 218.62 270.95 218.92 271.41 219.1C271.89 219.26 272.39 219.22 272.82 219.09C273.68 218.81 274.27 218.28 274.66 217.94C275.04 217.58 275.24 217.35 275.27 217.38C275.29 217.4 275.15 217.66 274.81 218.08C274.45 218.48 273.89 219.08 272.94 219.44C272.05 219.8 270.44 219.69 269.84 218.24C269.63 217.53 269.84 216.81 270.08 216.15C270.34 215.48 270.69 214.86 271.13 214.23C271.62 213.64 272.13 213.14 272.7 212.71C273.27 212.3 273.9 211.91 274.65 211.92C276.21 212.11 276.74 213.63 276.64 214.59C276.54 215.6 276.11 216.3 275.83 216.75C275.52 217.2 275.3 217.4 275.28 217.38L275.24 217.39Z" fill="#263238"/>
<path d="M268.37 225.97C267 227.78 265.09 228.67 263.59 227.43C262.09 226.19 264.43 222.98 264.43 222.98C264.43 222.98 266.9 219.87 268.5 220.98C270.1 222.09 269.74 224.17 268.37 225.97Z" fill="black"/>
<path d="M268.37 225.97C268.37 225.97 268.5 225.7 268.75 225.23C268.98 224.77 269.33 224.06 269.37 223.15C269.38 222.7 269.29 222.21 269.01 221.79C268.71 221.4 268.27 220.95 267.75 220.98C267.21 220.98 266.64 221.3 266.12 221.7C265.6 222.1 265.1 222.6 264.66 223.13C264.27 223.69 263.91 224.32 263.67 224.92C263.43 225.52 263.27 226.17 263.41 226.68C263.52 227.2 264.07 227.5 264.53 227.68C265.01 227.84 265.51 227.8 265.94 227.67C266.8 227.39 267.39 226.86 267.78 226.52C268.16 226.16 268.36 225.93 268.39 225.96C268.41 225.98 268.27 226.24 267.93 226.66C267.57 227.06 267.01 227.66 266.06 228.02C265.17 228.38 263.56 228.27 262.96 226.82C262.75 226.11 262.96 225.39 263.2 224.73C263.46 224.06 263.81 223.44 264.25 222.81C264.74 222.22 265.25 221.72 265.82 221.29C266.39 220.88 267.02 220.49 267.77 220.5C269.33 220.69 269.86 222.21 269.76 223.17C269.66 224.18 269.23 224.88 268.95 225.33C268.64 225.78 268.42 225.98 268.4 225.96L268.37 225.97Z" fill="#263238"/>
<path d="M261.49 236.29C260.12 238.1 258.21 238.99 256.71 237.75C255.21 236.51 257.55 233.3 257.55 233.3C257.55 233.3 260.02 230.19 261.62 231.3C263.22 232.41 262.86 234.49 261.49 236.29Z" fill="black"/>
<path d="M261.49 236.29C261.49 236.29 261.62 236.02 261.87 235.55C262.1 235.09 262.45 234.38 262.49 233.47C262.5 233.02 262.41 232.53 262.13 232.11C261.83 231.72 261.39 231.27 260.87 231.3C260.33 231.3 259.76 231.62 259.24 232.02C258.72 232.42 258.22 232.92 257.78 233.45C257.39 234.01 257.03 234.64 256.79 235.24C256.55 235.84 256.39 236.49 256.53 237C256.64 237.52 257.19 237.82 257.65 238C258.13 238.16 258.63 238.12 259.06 237.99C259.92 237.71 260.51 237.18 260.9 236.84C261.28 236.48 261.48 236.25 261.51 236.28C261.53 236.3 261.39 236.56 261.05 236.98C260.69 237.38 260.13 237.98 259.18 238.34C258.29 238.7 256.68 238.59 256.08 237.14C255.87 236.43 256.08 235.71 256.32 235.05C256.58 234.38 256.93 233.76 257.37 233.13C257.86 232.54 258.37 232.04 258.94 231.61C259.51 231.2 260.14 230.81 260.89 230.82C262.45 231.01 262.98 232.53 262.88 233.49C262.78 234.5 262.35 235.2 262.07 235.65C261.76 236.1 261.54 236.3 261.52 236.28L261.49 236.29Z" fill="#263238"/>
<path d="M253.32 246.92C251.95 248.73 250.04 249.62 248.54 248.38C247.04 247.14 249.38 243.93 249.38 243.93C249.38 243.93 251.85 240.82 253.45 241.93C255.05 243.04 254.69 245.12 253.32 246.92Z" fill="black"/>
<path d="M253.32 246.92C253.32 246.92 253.45 246.65 253.7 246.18C253.93 245.72 254.28 245.01 254.32 244.1C254.33 243.65 254.24 243.16 253.96 242.74C253.66 242.35 253.22 241.9 252.7 241.93C252.16 241.93 251.59 242.25 251.07 242.65C250.55 243.05 250.05 243.55 249.61 244.08C249.22 244.64 248.86 245.27 248.62 245.87C248.38 246.47 248.22 247.12 248.36 247.63C248.47 248.15 249.02 248.45 249.48 248.63C249.96 248.79 250.46 248.75 250.89 248.62C251.75 248.34 252.34 247.81 252.73 247.47C253.11 247.11 253.31 246.88 253.34 246.91C253.36 246.93 253.22 247.19 252.88 247.61C252.52 248.01 251.96 248.61 251.01 248.97C250.12 249.33 248.51 249.22 247.91 247.77C247.7 247.06 247.91 246.34 248.15 245.68C248.41 245.01 248.76 244.39 249.2 243.76C249.69 243.17 250.2 242.67 250.77 242.24C251.34 241.83 251.97 241.44 252.72 241.45C254.28 241.64 254.81 243.16 254.71 244.12C254.61 245.13 254.18 245.83 253.9 246.28C253.59 246.73 253.37 246.93 253.35 246.91L253.32 246.92Z" fill="#263238"/>
<path d="M245.16 257.55C243.79 259.36 241.88 260.25 240.38 259.01C238.88 257.77 241.22 254.56 241.22 254.56C241.22 254.56 243.69 251.45 245.29 252.56C246.89 253.67 246.53 255.75 245.16 257.55Z" fill="black"/>
<path d="M245.16 257.55C245.16 257.55 245.29 257.28 245.54 256.81C245.77 256.35 246.12 255.64 246.16 254.73C246.17 254.28 246.08 253.79 245.8 253.37C245.5 252.98 245.06 252.53 244.54 252.56C244 252.56 243.43 252.88 242.91 253.28C242.39 253.68 241.89 254.18 241.45 254.71C241.06 255.27 240.7 255.9 240.46 256.5C240.22 257.1 240.06 257.75 240.2 258.26C240.31 258.78 240.86 259.08 241.32 259.26C241.8 259.42 242.3 259.38 242.73 259.25C243.59 258.97 244.18 258.44 244.57 258.1C244.95 257.74 245.15 257.51 245.18 257.54C245.2 257.56 245.06 257.82 244.72 258.24C244.36 258.64 243.8 259.24 242.85 259.6C241.96 259.96 240.35 259.85 239.75 258.4C239.54 257.69 239.75 256.97 239.99 256.31C240.25 255.64 240.6 255.02 241.04 254.39C241.53 253.8 242.04 253.3 242.61 252.87C243.18 252.46 243.81 252.07 244.56 252.08C246.12 252.27 246.65 253.79 246.55 254.75C246.45 255.76 246.02 256.46 245.74 256.91C245.43 257.36 245.21 257.56 245.19 257.54L245.16 257.55Z" fill="#263238"/>
<path d="M263.26 119.15C263.35 119.43 271.25 129.12 271.58 129.22C271.92 129.32 277.14 134.64 277.14 134.64L281.47 137.08L284.07 139.54L288.17 136.12L286.09 133.32L283.81 128.49L277.37 122.21L265.12 117.04L263.25 119.14L263.26 119.15Z" fill="#263238"/>
<g opacity="0.3">
<path d="M239.69 284.01C240.26 287.01 238.29 289.91 235.29 290.49C232.29 291.06 229.39 289.09 228.81 286.09C228.23 283.09 230.21 280.19 233.21 279.61C236.21 279.03 239.11 281.01 239.69 284.01Z" fill="black"/>
</g>
<path d="M243.37 282.05C244 285.36 241.83 288.56 238.51 289.2C235.2 289.83 232 287.66 231.36 284.34C230.72 281.02 232.9 277.83 236.22 277.19C239.53 276.56 242.73 278.73 243.37 282.05Z" fill="black"/>
<path d="M243.37 282.05C243.32 282.06 243.23 281.52 242.81 280.66C242.39 279.82 241.54 278.63 240.01 277.89C238.52 277.14 236.29 276.99 234.37 278.15C233.43 278.71 232.59 279.59 232.09 280.67C231.56 281.75 231.4 283.03 231.62 284.28C231.87 285.52 232.5 286.66 233.38 287.47C234.25 288.3 235.35 288.8 236.43 288.98C238.64 289.36 240.66 288.39 241.77 287.14C242.92 285.89 243.28 284.47 243.36 283.54C243.44 282.59 243.31 282.05 243.36 282.04C243.38 282.04 243.41 282.17 243.47 282.42C243.53 282.67 243.57 283.05 243.56 283.55C243.54 284.52 243.23 286.02 242.04 287.39C240.9 288.75 238.75 289.83 236.35 289.45C235.17 289.27 233.98 288.73 233.03 287.84C232.06 286.97 231.37 285.73 231.1 284.38C230.85 283.02 231.04 281.62 231.62 280.45C232.17 279.27 233.09 278.33 234.12 277.73C236.21 276.5 238.61 276.71 240.17 277.56C241.77 278.39 242.62 279.67 242.99 280.57C243.18 281.02 243.28 281.4 243.32 281.65C243.36 281.9 243.38 282.04 243.36 282.04L243.37 282.05Z" fill="#263238"/>
<g opacity="0.3">
<path d="M265.21 257.44C265.78 260.44 263.81 263.34 260.81 263.92C257.81 264.49 254.91 262.52 254.33 259.52C253.76 256.52 255.73 253.62 258.73 253.04C261.73 252.47 264.63 254.44 265.21 257.44Z" fill="black"/>
</g>
<g opacity="0.3">
<path d="M253.85 271.2C254.42 274.2 252.45 277.1 249.45 277.68C246.45 278.25 243.55 276.28 242.97 273.28C242.39 270.28 244.37 267.38 247.37 266.8C250.37 266.23 253.27 268.2 253.85 271.2Z" fill="black"/>
</g>
<path d="M267.57 254.69C268.2 258 266.03 261.2 262.71 261.84C259.4 262.47 256.2 260.3 255.56 256.98C254.93 253.67 257.1 250.47 260.42 249.83C263.74 249.19 266.93 251.37 267.57 254.69Z" fill="black"/>
<path d="M267.57 254.69C267.52 254.7 267.43 254.16 267.01 253.3C266.59 252.46 265.74 251.27 264.21 250.53C262.72 249.78 260.49 249.63 258.57 250.79C257.63 251.35 256.79 252.23 256.29 253.31C255.76 254.39 255.6 255.67 255.82 256.92C256.07 258.16 256.7 259.3 257.58 260.11C258.45 260.93 259.55 261.44 260.63 261.62C262.84 262 264.86 261.03 265.97 259.78C267.12 258.53 267.48 257.11 267.56 256.18C267.64 255.23 267.51 254.69 267.56 254.68C267.58 254.68 267.61 254.81 267.67 255.06C267.73 255.31 267.77 255.69 267.76 256.19C267.74 257.16 267.43 258.66 266.24 260.03C265.1 261.39 262.95 262.47 260.55 262.09C259.37 261.91 258.18 261.37 257.23 260.48C256.26 259.61 255.57 258.37 255.3 257.02C255.05 255.66 255.24 254.26 255.82 253.09C256.37 251.91 257.29 250.97 258.32 250.37C260.41 249.14 262.81 249.35 264.37 250.2C265.97 251.03 266.82 252.31 267.19 253.21C267.38 253.66 267.48 254.04 267.52 254.29C267.56 254.54 267.58 254.68 267.56 254.68L267.57 254.69Z" fill="#263238"/>
<path d="M255.7 268.52C256.33 271.83 254.16 275.03 250.84 275.67C247.53 276.3 244.33 274.13 243.69 270.81C243.06 267.5 245.23 264.3 248.55 263.66C251.86 263.03 255.06 265.2 255.7 268.52Z" fill="black"/>
<path d="M255.7 268.52C255.65 268.53 255.56 267.99 255.14 267.13C254.72 266.29 253.87 265.1 252.34 264.36C250.85 263.61 248.62 263.46 246.7 264.62C245.76 265.18 244.92 266.06 244.42 267.14C243.89 268.22 243.73 269.5 243.95 270.75C244.2 271.99 244.83 273.13 245.71 273.94C246.58 274.76 247.68 275.27 248.76 275.45C250.97 275.83 252.99 274.86 254.1 273.61C255.25 272.36 255.61 270.94 255.69 270.01C255.77 269.06 255.64 268.52 255.69 268.51C255.71 268.51 255.74 268.64 255.8 268.89C255.86 269.14 255.9 269.52 255.89 270.02C255.87 270.99 255.56 272.49 254.37 273.86C253.23 275.22 251.08 276.3 248.68 275.92C247.5 275.74 246.31 275.2 245.36 274.31C244.39 273.44 243.7 272.2 243.43 270.85C243.18 269.49 243.37 268.09 243.95 266.92C244.5 265.74 245.42 264.8 246.45 264.2C248.54 262.97 250.94 263.18 252.5 264.03C254.1 264.86 254.95 266.14 255.32 267.04C255.51 267.49 255.61 267.87 255.65 268.12C255.69 268.37 255.71 268.51 255.69 268.51L255.7 268.52Z" fill="#263238"/>
<path opacity="0.3" d="M217.79 266.7C217.79 266.7 217.39 267.59 223.22 266C229.05 264.4 232.73 261.52 232.73 261.52C232.73 261.52 238.96 263.88 239.02 263.79C239.08 263.7 240.59 261.27 240.59 261.27L232.18 258.48L219.72 264.52L217.79 266.69V266.7Z" fill="black"/>
<path d="M209.64 246.22C209.64 246.22 213.05 248.01 215.97 247.08C218.89 246.14 232.52 239.43 232.52 239.43L245.94 238.08L252.3 243.29L254.42 249.92C254.42 249.92 253.08 251.92 251.44 249.66C249.8 247.39 248.38 245.14 248.38 245.14L252.68 255.03C252.68 255.03 249.96 256.67 247.16 253.28C245.33 251.06 243.48 247.68 243.48 247.68L236.7 248.64L243.34 251.34C243.34 251.34 253.61 260.76 251.47 261.99C251.47 261.99 247.17 265.11 244.72 264C243.27 263.34 232.17 259.14 232.17 259.14C232.17 259.14 221.72 265.05 216.7 265.42C212.69 265.72 200.63 261.92 200.63 261.92L209.62 246.2L209.64 246.22Z" fill="#AE7461"/>
<path d="M279.99 197.56C279.72 197.68 278.17 199.15 278.87 200.49C279.57 201.83 280.25 202.05 281.18 201.96C282.11 201.87 283.88 201.69 283.88 201.69C283.88 201.69 284.76 203.01 282.87 203.86C280.98 204.7 281 204.73 281 204.73L276.11 211.16C276.11 211.16 274.73 211 273.92 212.26C272.7 214.15 273.56 215.3 274.65 215.86C275.74 216.41 276.42 216.7 276.42 216.7C276.42 216.7 274.29 217.27 273.95 220.9C273.72 223.33 274.39 227.55 276.85 228.62C279.31 229.69 280.88 230.39 283.53 228.62C286.18 226.85 287.95 220.94 287.95 220.94C287.95 220.94 290.37 218.82 289.91 216.99L289.04 215.29C289.04 215.29 291.86 215.51 292.53 213.66C293.19 211.81 293.21 210.45 292.59 209.85C291.97 209.25 291.17 208.78 291.17 208.78C291.17 208.78 291.98 206.54 291.59 205.45C291.2 204.36 290.55 202.54 290.89 202.13C291.23 201.72 291.51 197.93 290.3 197.11C289.09 196.29 280 197.56 280 197.56H279.99Z" fill="#AE7461"/>
<path d="M282.33 201.97C282.32 201.83 283.52 201.58 285.02 201.43C286.52 201.27 287.74 201.26 287.76 201.41C287.77 201.55 286.57 201.8 285.07 201.95C283.57 202.11 282.35 202.12 282.33 201.97Z" fill="#6F4439"/>
<path d="M289.03 208.77C287.12 208.18 283.32 206.52 281.41 205.93C280.48 205.64 279.57 205.38 278.66 205.34C277.72 205.3 276.71 205.54 276.04 206.17C275.36 206.8 275.11 207.86 275.63 208.6C275.9 208.98 276.32 209.23 276.73 209.46C280.21 211.44 283.91 213.09 287.76 214.37" fill="#AE7461"/>
<path d="M287.76 214.37C287.76 214.37 287.34 214.31 286.61 214.08C285.88 213.86 284.84 213.5 283.58 213.01C282.31 212.51 280.83 211.87 279.22 211.07C278.41 210.67 277.58 210.23 276.73 209.75C276.31 209.51 275.83 209.27 275.47 208.8C275.1 208.33 275.03 207.67 275.19 207.12C275.34 206.56 275.71 206.07 276.16 205.76C276.61 205.44 277.13 205.26 277.63 205.17C278.66 204.98 279.65 205.19 280.52 205.42C282.27 205.91 283.76 206.56 285.01 207.07C286.18 207.56 287.17 207.97 287.97 208.3C288.67 208.59 289.06 208.74 289.05 208.78C289.05 208.81 288.63 208.73 287.9 208.49C287.17 208.26 286.14 207.89 284.87 207.41C283.6 206.95 282.11 206.33 280.39 205.88C279.54 205.66 278.63 205.49 277.72 205.66C276.83 205.81 275.92 206.35 275.69 207.25C275.57 207.69 275.63 208.15 275.89 208.48C276.15 208.82 276.57 209.06 276.99 209.3C277.83 209.78 278.66 210.23 279.45 210.64C281.04 211.46 282.5 212.13 283.74 212.67C284.98 213.21 286 213.61 286.7 213.89C287.4 214.17 287.79 214.33 287.78 214.37H287.76Z" fill="#6F4439"/>
<path d="M286.51 207.07C286.48 207.2 285.44 207 284.49 206.16C284.03 205.75 283.65 205.3 283.53 204.85C283.4 204.38 283.65 204.11 283.7 204.17C283.77 204.21 283.7 204.43 283.87 204.72C284.02 205.01 284.4 205.38 284.83 205.77C285.69 206.53 286.56 206.93 286.51 207.08V207.07Z" fill="#6F4439"/>
<path d="M284.15 221.74C284.03 221.87 282.32 220.11 279.84 218.49C277.35 216.88 274.98 216.22 275.04 216.05C275.05 215.94 277.54 216.38 280.12 218.05C281.4 218.88 282.43 219.8 283.12 220.5C283.81 221.21 284.19 221.69 284.15 221.74Z" fill="#6F4439"/>
<path d="M288.24 217.91C288.12 218.03 286.11 215.94 283.06 214.17C280.02 212.37 277.18 211.76 277.22 211.6C277.23 211.54 277.96 211.6 279.1 211.92C280.23 212.23 281.77 212.81 283.32 213.72C284.87 214.63 286.14 215.66 286.99 216.48C287.84 217.29 288.28 217.87 288.24 217.91Z" fill="#6F4439"/>
<path d="M278.9 225.49C278.83 225.51 278.65 225 278.39 224.17C278.13 223.34 277.79 222.19 277.27 221C277.02 220.41 276.68 219.81 276.66 219.15C276.61 218.48 277.04 217.9 277.46 217.69C277.88 217.44 278.3 217.43 278.55 217.49C278.81 217.55 278.92 217.65 278.91 217.68C278.9 217.76 278.32 217.53 277.66 218C277.34 218.23 277.08 218.62 277.14 219.13C277.18 219.63 277.48 220.18 277.75 220.8C278.29 222.04 278.57 223.23 278.75 224.09C278.92 224.95 278.97 225.49 278.91 225.5L278.9 225.49Z" fill="#6F4439"/>
<path d="M229.31 253.31C229.31 253.31 229.6 253.19 230.15 253.06C230.7 252.94 231.5 252.78 232.51 252.66C233.51 252.55 234.74 252.47 236.08 252.7C237.43 252.91 238.85 253.54 240.09 254.49C241.34 255.43 242.37 256.47 243.35 257.36C244.28 258.25 245.14 259.06 245.91 259.79C247.35 261.18 248.22 262.07 248.17 262.13C248.12 262.19 247.16 261.39 245.66 260.06C244.87 259.36 243.99 258.57 243.03 257.71C242.04 256.83 240.99 255.8 239.79 254.9C238.59 253.99 237.28 253.39 236.01 253.17C234.74 252.93 233.55 252.97 232.56 253.03C230.57 253.19 229.34 253.4 229.33 253.31H229.31Z" fill="#6F4439"/>
<path d="M236.9 249.12C236.81 249.24 236.17 248.91 235.37 248.6C234.57 248.28 233.87 248.09 233.89 247.94C233.9 247.8 234.68 247.77 235.56 248.12C236.44 248.46 236.99 249.02 236.9 249.13V249.12Z" fill="#6F4439"/>
<path d="M234.64 241.45C234.64 241.37 235.53 241.44 236.94 241.3C238.35 241.2 240.29 240.79 242.52 240.88C243.63 240.94 244.7 241.16 245.58 241.59C246.47 242.01 247.15 242.61 247.6 243.19C248.52 244.39 248.44 245.41 248.39 245.39C248.3 245.42 248.24 244.48 247.31 243.43C246.86 242.92 246.2 242.4 245.37 242.03C244.54 241.66 243.54 241.46 242.48 241.41C240.35 241.32 238.39 241.67 236.94 241.68C235.5 241.72 234.61 241.53 234.62 241.46L234.64 241.45Z" fill="#6F4439"/>
<path d="M264.48 111.59C265.48 113.51 265.76 115.71 265.25 117.69C264.74 119.66 263.44 121.4 261.66 122.5" fill="#AE7461"/>
<path d="M261.65 122.5C261.6 122.43 262.19 122.05 262.95 121.25C263.71 120.46 264.6 119.18 265 117.57C265.4 115.95 265.23 114.4 264.97 113.34C264.71 112.27 264.4 111.64 264.47 111.6C264.52 111.57 264.95 112.15 265.32 113.24C265.69 114.32 265.94 115.96 265.5 117.7C265.07 119.44 264.06 120.77 263.2 121.52C262.34 122.29 261.67 122.56 261.64 122.51L261.65 122.5Z" fill="#263238"/>
<path d="M339.55 430.19L335.56 458.06C335.56 458.06 362.12 471.45 361.87 476.67L308.38 470.92L312.84 427.25L339.55 430.2V430.19Z" fill="#263238"/>
<path d="M319.27 453.92C318.2 454.1 317.36 455.2 317.49 456.29C317.62 457.38 318.71 458.25 319.78 458.1C320.85 457.94 321.9 456.65 321.65 455.58C321.4 454.51 320.06 453.56 319.06 453.97" fill="#E0E0E0"/>
<path d="M308.39 470.92L309.01 466.54L360.06 473.69C360.06 473.69 362.33 475 361.88 476.67L308.39 470.92Z" fill="#455A64"/>
<path d="M336.46 457.87C336.42 458.13 335.1 458.11 333.73 458.83C332.34 459.51 331.55 460.59 331.32 460.45C331.08 460.37 331.64 458.83 333.33 457.99C335 457.14 336.55 457.63 336.47 457.86L336.46 457.87Z" fill="white"/>
<path d="M341.82 460.83C341.85 461.09 340.67 461.42 339.67 462.45C338.63 463.45 338.28 464.64 338.02 464.6C337.77 464.62 337.76 463.04 339.03 461.79C340.29 460.53 341.84 460.58 341.82 460.83Z" fill="white"/>
<path d="M344.27 467.99C344.03 468.02 343.81 466.66 344.63 465.28C345.45 463.89 346.74 463.45 346.83 463.69C346.95 463.92 346.08 464.62 345.42 465.76C344.73 466.89 344.54 468 344.28 468L344.27 467.99Z" fill="white"/>
<path d="M336.67 451.42C336.53 451.65 335.38 451.16 333.89 451.1C332.4 451.01 331.2 451.39 331.09 451.15C330.96 450.94 332.19 450.08 333.94 450.17C335.69 450.25 336.83 451.22 336.68 451.42H336.67Z" fill="white"/>
<path d="M284.27 402.2L263.01 420.65C263.01 420.65 274.31 448.16 270.71 451.95L234.05 412.58L266.02 382.49L284.28 402.2H284.27Z" fill="#263238"/>
<path d="M253.4 406.87C252.48 406.3 251.12 406.59 250.5 407.49C249.88 408.39 250.14 409.78 251.05 410.36C251.96 410.94 253.6 410.65 254.11 409.68C254.62 408.71 254.23 407.11 253.21 406.77" fill="#E0E0E0"/>
<path d="M234.05 412.58L237.39 409.67L271.29 448.51C271.29 448.51 272.15 450.98 270.71 451.95L234.05 412.58Z" fill="#455A64"/>
<path d="M263.81 421.11C263.61 421.29 262.63 420.41 261.12 420.05C259.62 419.65 258.32 419.95 258.24 419.7C258.11 419.49 259.55 418.69 261.36 419.16C263.18 419.61 264.03 420.99 263.81 421.12V421.11Z" fill="white"/>
<path d="M265.92 426.85C265.77 427.07 264.66 426.55 263.23 426.66C261.79 426.73 260.75 427.4 260.58 427.2C260.38 427.05 261.4 425.85 263.18 425.74C264.96 425.61 266.1 426.67 265.92 426.85Z" fill="white"/>
<path d="M263.09 433.87C262.89 433.73 263.61 432.56 265.14 432.06C266.67 431.55 267.93 432.06 267.84 432.29C267.78 432.55 266.66 432.5 265.42 432.93C264.16 433.33 263.29 434.04 263.09 433.87Z" fill="white"/>
</svg>
