<svg width="18" height="22" viewBox="0 0 18 22" fill="none" xmlns="http://www.w3.org/2000/svg">
<path d="M6.2899 16.69C5.3199 18.25 3.2599 18.74 1.6999 17.76C0.139901 16.79 -0.340091 14.73 0.629909 13.17C1.59991 11.61 3.65991 11.13 5.21991 12.1C6.77991 13.07 7.2599 15.13 6.2899 16.69Z" fill="#263238"/>
<path d="M6.47 15.49C6.15 15.52 5.67 12.01 5.97 7.71001C6.28 3.43001 6.65 0.0200098 6.95 0.0100098C7.29 0.0100098 7.43 3.52001 7.12 7.78001C6.82 12.02 6.78001 15.46 6.46001 15.49H6.47Z" fill="#263238"/>
<path d="M17.3998 2.79001C17.4998 3.04001 14.9298 4.12001 11.6098 3.54001C9.96982 3.26001 8.55982 2.55 7.73982 1.8C6.89982 1.05 6.70982 0.320004 6.82982 0.260004C6.97982 0.170004 7.37981 0.660004 8.22981 1.14C9.05981 1.64 10.3198 2.15 11.8098 2.4C14.7898 2.93 17.3298 2.43001 17.3998 2.79001Z" fill="#263238"/>
<path d="M16.7299 19.46C15.7599 21.02 13.6999 21.5 12.1399 20.53C10.5799 19.56 10.0899 17.5 11.0699 15.94C12.0399 14.38 14.0999 13.89 15.6599 14.87C17.2199 15.84 17.7099 17.9 16.7299 19.46Z" fill="#263238"/>
<path d="M16.9099 18.27C16.5899 18.3 16.1099 14.79 16.4099 10.49C16.7199 6.21001 17.0899 2.79001 17.3899 2.79001C17.7299 2.79001 17.8699 6.30001 17.5599 10.56C17.2599 14.8 17.2199 18.24 16.8999 18.27H16.9099Z" fill="#263238"/>
<path d="M17.3399 5.07001C17.4799 5.34001 15.0999 6.53001 11.9599 6.10001C8.81992 5.70001 6.82991 3.93001 7.02991 3.71001C7.21991 3.43001 9.28991 4.61001 12.1099 4.96001C14.9299 5.36001 17.2299 4.76001 17.3399 5.08001V5.07001Z" fill="#263238"/>
</svg>
